<?xml version="1.0" standalone="no"?>
<!DOCTYPE svg PUBLIC "-//W3C//DTD SVG 1.1//EN" "http://www.w3.org/Graphics/SVG/1.1/DTD/svg11.dtd" >
<svg xmlns="http://www.w3.org/2000/svg" xmlns:xlink="http://www.w3.org/1999/xlink" version="1.1">
<metadata></metadata>
<defs>
<font id="aachenbold" horiz-adv-x="1024" >
<font-face units-per-em="2048" ascent="1638" descent="-410" />
<missing-glyph horiz-adv-x="621" />
<glyph horiz-adv-x="0" />
<glyph unicode="&#xd;" horiz-adv-x="0" />
<glyph unicode=" "  horiz-adv-x="621" />
<glyph unicode="&#x09;" horiz-adv-x="621" />
<glyph unicode="&#xa0;" horiz-adv-x="621" />
<glyph unicode="!" horiz-adv-x="621" d="M119 1364q0 88 51 138t139 50q90 0 141.5 -49t51.5 -139q0 -31 -8 -94l-99 -789h-172l-96 789q-8 63 -8 94zM137 154q0 68 51 120t121 52q49 0 88 -23t61.5 -61.5t22.5 -87.5q0 -71 -51.5 -121.5t-120.5 -50.5t-120.5 51.5t-51.5 120.5z" />
<glyph unicode="&#x22;" horiz-adv-x="678" d="M80 879v559h192v-559h-192zM406 879v559h192v-559h-192z" />
<glyph unicode="#" horiz-adv-x="1575" d="M45 406l76 200h282l86 242h-299l74 201h297l148 415h221l-146 -415h242l148 415h221l-148 -415h283l-74 -201h-280l-84 -242h290l-71 -200h-291l-148 -416h-221l148 416h-244l-149 -416h-220l146 416h-287zM621 606h251l86 242h-249z" />
<glyph unicode="$" horiz-adv-x="1241" d="M111 1110q0 173 94 282t274 148v105h293v-105q91 -18 178.5 -54t171.5 -100v-358h-336v27q0 99 -41 149.5t-122 50.5q-77 0 -122.5 -39.5t-45.5 -101.5q0 -48 30 -81t89.5 -60t162.5 -62q151 -52 238 -107t130.5 -139.5t43.5 -218.5q0 -123 -44.5 -219.5t-130.5 -159 t-202 -83.5v-101h-293v99q-217 40 -364 163v381h344v-30q0 -110 43 -162.5t135 -52.5q70 0 115 43t45 116t-51.5 120t-159.5 87q-70 25 -126 45.5t-110.5 47t-93.5 57.5q-49 39 -82 85t-48 103t-15 125z" />
<glyph unicode="%" horiz-adv-x="1612" d="M55 1096v145q0 107 29 168.5t96 87t187 25.5q116 0 183.5 -25t98.5 -86t31 -170v-145q0 -108 -30.5 -169t-97.5 -86.5t-185 -25.5q-121 0 -187.5 26t-95.5 86.5t-29 168.5zM238 0l876 1522h256l-876 -1522h-256zM283 1059q0 -61 20.5 -90t65.5 -29q86 0 86 119v219 q0 119 -86 119q-44 0 -65 -29t-21 -90v-219zM928 279v145q0 109 31 170t98 87t184 26q118 0 185 -26t97.5 -87t30.5 -170v-145q0 -110 -31 -170.5t-98.5 -85.5t-183.5 -25t-183.5 25t-98.5 85.5t-31 170.5zM1157 244q0 -121 84 -121q86 0 86 121v217q0 121 -86 121 q-44 0 -64 -29.5t-20 -91.5v-217z" />
<glyph unicode="&#x26;" horiz-adv-x="1282" d="M96 453q0 299 236 364q-215 100 -215 326q0 125 59 216.5t171 141t269 49.5q132 0 261.5 -37t250.5 -108v-262h-335q-3 31 -22 54t-52.5 36.5t-71.5 13.5q-78 0 -122 -43t-44 -119q0 -80 52 -115.5t161 -35.5h111v53h323v-53h60v-246h-60v-688h-516q-137 0 -230.5 21.5 t-158.5 73.5t-96 140.5t-31 217.5zM455 508q0 -72 24 -114t74 -58.5t129 -16.5h123v369h-143q-111 0 -159 -39t-48 -141z" />
<glyph unicode="'" horiz-adv-x="352" d="M80 879v559h192v-559h-192z" />
<glyph unicode="(" horiz-adv-x="793" d="M121 655q0 134 28 263.5t82.5 250.5t136 240t195.5 242l162 -111q-64 -99 -112 -203t-84.5 -226t-53 -231.5t-16.5 -224.5q0 -113 16.5 -223.5t53.5 -232t85 -226t111 -202.5l-162 -111q-114 123 -195 242t-136 240t-83 250t-28 263z" />
<glyph unicode=")" horiz-adv-x="793" d="M68 -229q63 98 113 205.5t83.5 219.5t50.5 225.5t17 233.5q0 121 -17.5 235.5t-51 226.5t-82.5 219t-113 204l159 111q110 -117 194 -239t140.5 -247t83.5 -249.5t27 -260.5t-27 -260.5t-83.5 -250t-138.5 -244.5t-196 -240z" />
<glyph unicode="*" horiz-adv-x="854" d="M86 1102l184 106l-184 107l68 129l194 -103v211h154v-211l188 103l76 -129l-191 -107l191 -106l-76 -127l-188 104v-215h-154v215l-194 -104z" />
<glyph unicode="+" horiz-adv-x="1706" d="M254 512v199h498v510h202v-510h498v-199h-498v-512h-202v512h-498z" />
<glyph unicode="," horiz-adv-x="621" d="M154 156q0 65 46 108t111 43q45 0 82.5 -21.5t58.5 -62.5t21 -92q0 -90 -61 -176t-172 -148l-52 78q86 61 101 117q-66 12 -100.5 53t-34.5 101z" />
<glyph unicode="-" horiz-adv-x="782" d="M117 453v245h549v-245h-549z" />
<glyph unicode="." horiz-adv-x="621" d="M147 143q0 42 22.5 80t60.5 61t81 23q69 0 115.5 -48.5t46.5 -115.5q0 -68 -47.5 -114.5t-114.5 -46.5q-64 0 -114 49t-50 112z" />
<glyph unicode="/" horiz-adv-x="664" d="M-96 -190l536 1712h271l-537 -1712h-270z" />
<glyph unicode="0" horiz-adv-x="1241" d="M111 512v500q0 108 5 169.5t22.5 119t54.5 104.5q61 78 166 112.5t262 34.5t262 -34.5t166 -112.5q54 -68 69 -156.5t15 -236.5v-500q0 -153 -14.5 -240t-69.5 -155q-61 -77 -165 -112.5t-263 -35.5q-157 0 -262 35.5t-166 112.5q-38 47 -55.5 105t-22 120t-4.5 170z M461 498q0 -116 36.5 -170t123.5 -54t124 53.5t37 170.5v526q0 116 -36.5 168.5t-124.5 52.5t-124 -53.5t-36 -167.5v-526z" />
<glyph unicode="1" horiz-adv-x="1241" d="M371 0v256q34 7 51.5 25t22 49t4.5 84v704q0 83 -13.5 115t-64.5 43v246h428v-1108q0 -60 4 -87t20 -45.5t51 -25.5v-256h-503z" />
<glyph unicode="2" horiz-adv-x="1241" d="M102 0v356q0 79 17.5 137t51.5 100t99 93l389 305q57 44 83 80.5t26 79.5q0 63 -36 98t-103 35q-78 0 -122 -44t-44 -124v-112h-334v409q94 64 226.5 101.5t271.5 37.5q175 0 287 -42t166.5 -131.5t54.5 -229.5q0 -100 -27.5 -172.5t-76 -124.5t-138.5 -123l-334 -264 q-51 -41 -73.5 -74t-22.5 -84v-12h149q68 0 101.5 13t45 42t11.5 88v47h373v-485h-1041z" />
<glyph unicode="3" horiz-adv-x="1241" d="M94 109v362h346v-12q0 -183 166 -183q76 0 117 46t41 135q0 72 -22.5 112.5t-68.5 57t-120 16.5h-191v258h203q97 0 150 46t53 128q0 84 -46 128t-128 44q-141 0 -152 -176h-331v346q69 43 150.5 73t170 46t186.5 16q241 0 368.5 -107t127.5 -310q0 -139 -64 -224 t-198 -123q274 -40 274 -366q0 -453 -524 -453q-87 0 -171.5 15.5t-168.5 46t-168 78.5z" />
<glyph unicode="4" horiz-adv-x="1241" d="M51 406v325l527 791h438v-828h100v-288h-100v-21q0 -44 6 -69.5t22.5 -39.5t47.5 -20v-256h-488v256q46 9 61 37t15 92v21h-629zM367 694h313v480z" />
<glyph unicode="5" horiz-adv-x="1241" d="M115 109v391h346v-8q0 -113 42 -166.5t136 -53.5q61 0 97.5 25.5t51.5 77t15 135.5q0 119 -36 174t-124 55q-95 0 -151 -69h-377v852h999v-410h-328q-4 49 -20.5 74.5t-49 34t-89.5 8.5h-164v-275q70 27 132 39.5t128 12.5q119 0 200.5 -32t132 -95t75 -159t24.5 -233 q0 -180 -52.5 -294t-165 -170t-292.5 -56q-155 0 -289 36t-241 106z" />
<glyph unicode="6" horiz-adv-x="1241" d="M102 403v705q0 115 31 199t91.5 138t155 80.5t222.5 26.5q131 0 260 -30t252 -88v-347h-334q-1 90 -39.5 132.5t-122.5 42.5q-104 0 -136.5 -53.5t-32.5 -184.5v-147q131 79 301 79q187 0 288 -102q64 -64 83.5 -147.5t19.5 -219.5q0 -188 -48 -300t-163.5 -165 t-319.5 -53q-181 0 -292 45.5t-163.5 141.5t-52.5 247zM449 473q0 -106 39 -157.5t122 -51.5q164 0 164 209q0 197 -164 197q-161 0 -161 -197z" />
<glyph unicode="7" horiz-adv-x="1241" d="M100 1010v512h1047v-260l-541 -1262h-377l529 1229h-96q-97 0 -144.5 -13t-68.5 -55.5t-21 -132.5v-18h-328z" />
<glyph unicode="8" horiz-adv-x="1241" d="M78 424q0 138 53 228t164 136q-107 44 -153 122.5t-46 209.5q0 140 59.5 236.5t176.5 145t289 48.5q257 0 390.5 -108.5t133.5 -321.5q0 -133 -45.5 -210.5t-153.5 -121.5q111 -46 164 -136t53 -228q0 -154 -59 -254.5t-179.5 -150.5t-303.5 -50q-184 0 -304.5 50 t-179.5 150.5t-59 254.5zM446 467q0 -102 46 -156.5t129 -54.5q84 0 129 55t45 156t-44.5 155t-129.5 54q-84 0 -129.5 -53.5t-45.5 -155.5zM461 1081q0 -81 42.5 -127.5t117.5 -46.5q76 0 117.5 45.5t41.5 126.5q0 82 -42.5 127t-116.5 45q-75 0 -117.5 -44.5t-42.5 -125.5 z" />
<glyph unicode="9" horiz-adv-x="1241" d="M102 1034q0 165 27 260.5t115 161.5q126 96 387 96q181 0 292 -45.5t163.5 -141.5t52.5 -247v-704q0 -114 -30 -198t-90.5 -138.5t-154.5 -81.5t-223 -27q-262 0 -506 113v324h326q6 -146 162 -146q71 0 107.5 24.5t49.5 75.5t13 138v125q-114 -74 -267 -74 q-116 0 -196.5 29.5t-131.5 90.5t-73.5 151t-22.5 214zM467 1049q0 -114 39.5 -169t124.5 -55q162 0 162 209q0 114 -37 166.5t-125 52.5q-84 0 -124 -49.5t-40 -154.5z" />
<glyph unicode=":" horiz-adv-x="621" d="M147 143q0 42 22.5 80t60.5 61t81 23q69 0 115.5 -48.5t46.5 -115.5q0 -68 -47.5 -114.5t-114.5 -46.5q-64 0 -114 49t-50 112zM147 754q0 63 49 112t115 49q68 0 115 -47t47 -114q0 -69 -47.5 -116.5t-114.5 -47.5q-64 0 -114 50t-50 114z" />
<glyph unicode=";" horiz-adv-x="621" d="M147 754q0 63 49 112t115 49q68 0 115 -47t47 -114q0 -69 -47.5 -116.5t-114.5 -47.5q-64 0 -114 50t-50 114zM154 156q0 65 46 108t111 43q45 0 82.5 -21.5t58.5 -62.5t21 -92q0 -90 -61 -176t-172 -148l-52 78q86 61 101 117q-66 12 -100.5 53t-34.5 101z" />
<glyph unicode="&#x3c;" horiz-adv-x="1706" d="M264 512v199l1178 483v-219l-893 -365l893 -364v-219z" />
<glyph unicode="=" horiz-adv-x="1706" d="M254 297v199h1198v-199h-1198zM254 727v199h1198v-199h-1198z" />
<glyph unicode="&#x3e;" horiz-adv-x="1706" d="M264 27v219l895 364l-895 365v219l1178 -483v-199z" />
<glyph unicode="?" horiz-adv-x="1139" d="M84 1063v348q195 141 479 141q257 0 385.5 -104t128.5 -315q0 -118 -32 -191.5t-84.5 -118.5t-157.5 -112q-38 -24 -81 -51.5t-66.5 -49t-36.5 -49.5t-13 -65v-17h-336v105q0 100 27.5 153t114.5 117q52 39 146 99t131.5 100.5t37.5 95.5q0 64 -42 98.5t-122 34.5 q-71 0 -110 -46t-39 -132v-41h-330zM264 154q0 68 50 120t122 52q49 0 87.5 -23t61.5 -61.5t23 -87.5q0 -48 -24 -87.5t-63.5 -62t-84.5 -22.5q-69 0 -120.5 51.5t-51.5 120.5z" />
<glyph unicode="@" horiz-adv-x="2048" d="M90 520q0 339 207 594q301 367 819 367q116 0 220.5 -20.5t195.5 -60.5t160 -93q268 -208 268 -543q0 -108 -29.5 -209t-86.5 -185t-138 -149q-142 -115 -324 -115q-212 0 -215 166q-106 -163 -297 -163q-159 0 -241 87t-82 253q0 118 36.5 221t103.5 180t155.5 119.5 t187.5 42.5q161 0 236 -131l53 98h178l-147 -598q-7 -28 -7 -41q0 -70 95 -70q82 0 161 76q175 163 175 422q0 117 -47 216.5t-133.5 174.5t-211.5 116.5t-272 41.5q-283 0 -483 -135q-111 -74 -191.5 -177.5t-121 -225.5t-40.5 -257q0 -150 53 -275t154.5 -215t242.5 -137 t310 -47q331 0 604 191l82 -117q-308 -231 -682 -231q-97 0 -187.5 13t-170 37.5t-151 60.5t-130.5 81q-309 240 -309 637zM760 444q0 -188 158 -188q54 0 104 28t86.5 78.5t54.5 120.5l54 217q-26 166 -175 166q-55 0 -106 -32t-91 -90t-62.5 -135t-22.5 -165z" />
<glyph unicode="A" horiz-adv-x="1223" d="M47 0v256q41 12 59 47.5t33 112.5l215 1106h523l237 -1131q13 -64 31.5 -94t56.5 -41v-256h-518v256q38 3 57 23t19 49q0 18 -4 45l-13 63h-294l-13 -57q-4 -28 -4 -47q0 -37 20 -56t62 -20v-256h-467zM487 653h207l-104 582z" />
<glyph unicode="B" horiz-adv-x="1319" d="M102 0v256q34 7 51.5 25.5t22 45.5t4.5 87v704q0 82 -13 114.5t-65 43.5v246h586q135 0 229.5 -23.5t156.5 -72.5t93 -128t31 -190q0 -127 -54.5 -212t-158.5 -120q238 -73 238 -364q0 -117 -31.5 -196t-93 -125.5t-160.5 -68.5t-231 -22h-605zM532 297h154 q101 0 146 41.5t45 138.5q0 98 -48 140t-151 42h-146v-362zM532 920h136q95 0 139.5 32.5t44.5 114.5q0 90 -43 126t-141 36h-136v-309z" />
<glyph unicode="C" horiz-adv-x="1237" d="M109 512v498q0 135 10.5 216.5t48.5 145.5q57 96 167.5 138t285.5 42q249 0 491 -112v-430h-332v30q0 205 -159 205q-89 0 -125.5 -53.5t-36.5 -169.5v-522q0 -117 37 -170.5t125 -53.5t123.5 54t35.5 170v108h332v-522q-107 -56 -234 -86.5t-257 -30.5q-158 0 -264 35.5 t-167 112.5q-36 46 -53.5 103.5t-22.5 120t-5 171.5z" />
<glyph unicode="D" horiz-adv-x="1305" d="M102 0v256q34 7 51.5 25.5t22 45.5t4.5 87v704q0 82 -13 114.5t-65 43.5v246h506q225 0 351 -51t181.5 -173.5t55.5 -349.5v-364q0 -181 -28 -292t-94 -174.5t-177 -90.5t-289 -27h-506zM532 305h103q64 0 106 9.5t64 34t30.5 63.5t8.5 106v459q0 92 -13.5 144.5t-54 77 t-123.5 24.5h-20l-101 -2v-916z" />
<glyph unicode="E" horiz-adv-x="1262" d="M102 0v256q34 7 51.5 25.5t22 45.5t4.5 87v704q0 82 -13 114.5t-65 43.5v246h1072v-465h-330v16q0 90 -40 124t-142 34h-130v-318h416v-256h-416v-366h154q92 0 125 36.5t33 127.5v55h330v-510h-1072z" />
<glyph unicode="F" horiz-adv-x="1208" d="M102 0v256q34 7 51.5 25.5t22 45.5t4.5 87v704q0 82 -13 114.5t-65 43.5v246h1045v-467h-309v14q0 87 -38.5 121.5t-131.5 34.5h-136v-310h396v-256h-396v-245q0 -82 15 -118t63 -40v-256h-508z" />
<glyph unicode="G" horiz-adv-x="1237" d="M109 512v498q0 135 10.5 216.5t48.5 145.5q57 96 167.5 138t285.5 42q249 0 491 -112v-404h-332v8q0 201 -159 201q-89 0 -125.5 -53.5t-36.5 -169.5v-522q0 -117 37 -170.5t125 -53.5t123.5 54t35.5 170v53h-141v244h473v-684q-214 -144 -491 -144q-158 0 -264 35.5 t-167 112.5q-36 46 -53.5 104.5t-22.5 120.5t-5 170z" />
<glyph unicode="H" horiz-adv-x="1389" d="M102 0v256q34 7 51.5 25.5t22 45.5t4.5 87v704q0 82 -13 114.5t-65 43.5v246h506v-246q-35 -7 -51 -25.5t-20.5 -46.5t-4.5 -86v-203h324v203q0 85 -12.5 116t-63.5 42v246h506v-246q-34 -7 -51.5 -26t-22 -46.5t-4.5 -85.5v-704q0 -60 4.5 -87t22 -45.5t51.5 -25.5v-256 h-506v256q51 11 63.5 42t12.5 116v243h-324v-243q0 -60 4 -87.5t20.5 -45.5t51.5 -25v-256h-506z" />
<glyph unicode="I" horiz-adv-x="725" d="M109 0v256q35 7 51.5 25.5t21 45.5t4.5 87v704q0 82 -13 114.5t-64 43.5v246h505v-246q-35 -7 -51 -25.5t-20 -46.5t-4 -86v-704q0 -60 4 -87t20 -45.5t51 -25.5v-256h-505z" />
<glyph unicode="J" horiz-adv-x="743" d="M66 6v225q14 -2 40 -2q72 0 95.5 42.5t23.5 142.5v704q0 85 -12.5 116t-62.5 42v246h505v-246q-35 -7 -51.5 -26t-21 -46.5t-4.5 -85.5v-624q0 -154 -6 -233t-29 -126q-81 -164 -289 -164q-94 0 -188 35z" />
<glyph unicode="K" horiz-adv-x="1255" d="M102 0v256q34 7 51.5 25.5t22 45.5t4.5 87v704q0 82 -13 114.5t-65 43.5v246h502v-246q-51 -11 -63.5 -43.5t-12.5 -114.5v-260l191 289q30 43 38.5 82t8.5 94v199h428v-246q-65 -17 -111 -88l-227 -344l287 -514q19 -33 38 -50t52 -24v-256h-467v197q0 111 -39 180 l-199 360v-323q0 -60 4 -87t21 -45.5t51 -25.5v-256h-502z" />
<glyph unicode="L" horiz-adv-x="1180" d="M102 0v256q34 7 51.5 25.5t22 45.5t4.5 87v704q0 82 -13 114.5t-65 43.5v246h506v-246q-35 -7 -51 -25.5t-20.5 -46.5t-4.5 -86v-829h115q78 0 116.5 23.5t50 71.5t11.5 138v168h305v-690h-1028z" />
<glyph unicode="M" horiz-adv-x="1671" d="M98 0v256q82 0 82 135v733q0 73 -17.5 106t-64.5 44v248h541l197 -867l188 867h549v-248q-55 -13 -68.5 -45t-13.5 -111v-690q0 -92 15.5 -128.5t66.5 -43.5v-256h-500v256q48 8 62 46t14 126v717l-268 -1145h-144l-276 1169v-768q0 -78 14.5 -108t63.5 -37v-256h-441z " />
<glyph unicode="N" horiz-adv-x="1374" d="M102 0v256q50 6 64 39.5t14 114.5v735q0 62 -15 91.5t-63 39.5v246h398l383 -856v456q0 76 -16.5 110.5t-65.5 43.5v246h483v-246q-40 -12 -57 -32t-21 -49t-4 -89v-1106h-319l-383 864v-454q0 -80 15.5 -113.5t64.5 -40.5v-256h-478z" />
<glyph unicode="O" horiz-adv-x="1239" d="M109 512v498q0 108 4.5 170t21.5 119.5t55 105.5q61 78 167 112.5t264 34.5q156 0 260.5 -34.5t167.5 -112.5q53 -67 67 -154t14 -241v-498q0 -154 -14 -241t-67 -154q-62 -77 -167 -112.5t-261 -35.5q-158 0 -264 35.5t-167 112.5q-37 47 -54.5 104.5t-22 119.5 t-4.5 171zM459 500q0 -117 37 -170.5t125 -53.5t123.5 54t35.5 170v522q0 115 -35 169t-124 54t-125.5 -53.5t-36.5 -169.5v-522z" />
<glyph unicode="P" horiz-adv-x="1255" d="M102 0v256q34 7 51.5 25.5t22 45.5t4.5 87v704q0 82 -13 114.5t-65 43.5v246h603q179 0 287.5 -49.5t158 -156.5t49.5 -284q0 -210 -42 -330t-148.5 -175.5t-304.5 -55.5h-173v-57q0 -60 4 -87.5t20.5 -45.5t51.5 -25v-256h-506zM532 799h132q73 0 112.5 15t57.5 57 t18 122q0 119 -40 162t-146 43h-134v-399z" />
<glyph unicode="Q" horiz-adv-x="1239" d="M109 512v498q0 108 4.5 170t21.5 119.5t55 105.5q61 78 167 112.5t264 34.5q156 0 260.5 -34.5t167.5 -112.5q53 -67 67 -154t14 -241v-498q0 -155 -14 -241.5t-63 -149.5q40 -41 102 -70l-129 -223q-144 51 -270 149q-86 -8 -135 -8q-158 0 -264 35.5t-167 112.5 q-38 48 -55 105.5t-21.5 119.5t-4.5 170zM459 500q0 -117 37 -170.5t125 -53.5t123.5 54t35.5 170v522q0 115 -35 169t-124 54t-125.5 -53.5t-36.5 -169.5v-522z" />
<glyph unicode="R" horiz-adv-x="1327" d="M102 0v256q34 7 51.5 25.5t22 45.5t4.5 87v704q0 82 -13 114.5t-65 43.5v246h598q258 0 380 -103t122 -336q0 -142 -59 -231.5t-172 -120.5q110 -25 152 -78t42 -161v-82q0 -78 12.5 -111.5t53.5 -42.5v-256h-377q-21 45 -26 93.5t-5 129.5v195q0 73 -14.5 113.5 t-53 57.5t-114.5 17h-109v-192q0 -60 4 -87.5t20.5 -45.5t51.5 -25v-256h-506zM532 874h138q96 0 141 42.5t45 136.5q0 95 -44.5 139.5t-137.5 44.5h-142v-363z" />
<glyph unicode="S" horiz-adv-x="1233" d="M102 1110q0 135 62.5 235.5t180 153.5t271.5 53q139 0 263.5 -41t234.5 -125v-358h-336v27q0 99 -41 149.5t-123 50.5q-76 0 -120.5 -39t-44.5 -102q0 -48 30 -81t89.5 -60t162.5 -62q152 -52 238.5 -107.5t129 -140.5t42.5 -217q0 -142 -61.5 -250t-177.5 -167.5 t-273 -59.5q-145 0 -279 45t-241 131v381h342v-30q0 -110 43 -162.5t135 -52.5q70 0 114.5 43.5t44.5 115.5q0 73 -51 120t-159 87q-72 26 -126.5 46t-109 47.5t-92.5 56.5q-76 59 -112 133.5t-36 179.5z" />
<glyph unicode="T" horiz-adv-x="1313" d="M57 905v617h1196v-617h-280v154q0 91 -32.5 132t-109.5 42v-819q0 -60 4 -87.5t20.5 -45.5t51.5 -25v-256h-506v256q34 7 51.5 25.5t22 45.5t4.5 87v819q-75 -2 -107 -42.5t-32 -131.5v-154h-283z" />
<glyph unicode="U" horiz-adv-x="1327" d="M94 1276v246h510v-246q-50 -16 -64 -56t-14 -128v-590q0 -78 15 -126.5t51 -74t94 -25.5q166 0 166 220v639q0 67 -17.5 98t-62.5 43v246h461v-246q-51 -11 -66.5 -46.5t-15.5 -115.5v-631q0 -88 -7 -148.5t-27 -113.5t-60 -100q-61 -72 -159.5 -112t-219.5 -40 q-139 0 -235.5 33t-154 98.5t-84 167t-26.5 240.5v614q0 74 -14.5 104t-69.5 50z" />
<glyph unicode="V" horiz-adv-x="1219" d="M33 1276v246h526v-246q-41 -9 -59.5 -28t-18.5 -54q0 -25 6 -49l166 -856l152 846q4 22 4 57q0 38 -18 57.5t-62 26.5v246h467v-246q-65 -28 -86 -133l-223 -1143h-525l-235 1141q-12 60 -30 90t-64 45z" />
<glyph unicode="W" horiz-adv-x="1741" d="M18 1274v248h504v-248q-65 -5 -65 -76q0 -31 4 -63l117 -707l184 1094h268l201 -1088l90 686l8 74q0 34 -14.5 52t-50.5 28v248h440v-248q-45 -18 -61.5 -52t-26.5 -102l-178 -1120h-412l-156 834l-133 -834h-418l-210 1137q-11 60 -32 92.5t-59 44.5z" />
<glyph unicode="X" horiz-adv-x="1178" d="M55 0v256q43 22 74 80l256 467l-223 389q-32 58 -78 82v248h428v-152q0 -74 33 -139l84 -164l86 162q30 59 30 141v152h367v-248q-46 -19 -78 -78l-223 -432l231 -408q27 -44 44.5 -64.5t48.5 -35.5v-256h-455v193q0 87 -39 161l-82 162l-88 -164q-41 -76 -41 -180v-172 h-375z" />
<glyph unicode="Y" horiz-adv-x="1128" d="M23 1276v246h446v-187q0 -100 29 -161l102 -211l100 202q33 66 33 170v187h391v-246q-42 -13 -82 -88l-292 -586v-199q0 -77 13.5 -108.5t63.5 -38.5v-256h-508v256q44 9 62 42t18 101v185l-295 602q-37 79 -81 90z" />
<glyph unicode="Z" horiz-adv-x="1233" d="M92 0v223l606 1010h-98q-84 0 -127 -10.5t-63.5 -45t-20.5 -108.5v-57h-278v510h1013v-228l-587 -993h108q68 0 107.5 13t57 46t17.5 91v51h306v-502h-1041z" />
<glyph unicode="[" horiz-adv-x="793" d="M184 -207v1729h518v-109h-227v-1511h227v-109h-518z" />
<glyph unicode="\" horiz-adv-x="664" d="M-47 1522h270l537 -1712h-271z" />
<glyph unicode="]" horiz-adv-x="793" d="M90 -98h227v1511h-227v109h518v-1729h-518v109z" />
<glyph unicode="^" horiz-adv-x="2048" d="M416 899l481 561h252l481 -561h-235l-371 371l-373 -371h-235z" />
<glyph unicode="_" d="M0 -279h1024v-204h-1024v204z" />
<glyph unicode="`" d="M219 1620h258l197 -371h-142z" />
<glyph unicode="a" horiz-adv-x="1133" d="M72 291q0 115 62.5 190t184.5 129.5t357 128.5v64q0 65 -27 95t-86 30q-114 0 -114 -129v-35h-314v258q66 35 145.5 63t153.5 41t146 13q147 0 237.5 -39.5t131 -121.5t40.5 -216v-373q0 -84 13 -118t61 -44v-227h-375v117q-50 -46 -103 -75.5t-111 -44.5t-114 -15 q-133 0 -210.5 82.5t-77.5 226.5zM406 315q0 -40 24 -65t66 -25q86 0 180 109v192q-147 -58 -208.5 -102t-61.5 -109z" />
<glyph unicode="b" horiz-adv-x="1184" d="M68 1298v224h391v-465q135 78 270 78q187 0 270.5 -94.5t83.5 -295.5v-339q0 -213 -118 -318.5t-359 -105.5q-232 0 -469 143v1034q0 62 -12 91t-57 48zM459 272q64 -49 147 -49q85 0 119.5 49.5t34.5 155.5v264q0 104 -36 152.5t-118 48.5q-73 0 -147 -51v-570z" />
<glyph unicode="c" horiz-adv-x="1075" d="M100 379v360q0 103 25 177.5t79 124.5t135.5 74t195.5 24q229 0 442 -121v-316h-291v35q0 89 -32.5 131.5t-102.5 42.5q-73 0 -104 -45t-31 -143v-326q0 -97 30.5 -141.5t104.5 -44.5q76 0 105.5 44.5t29.5 141.5v66h291v-361q-87 -56 -197 -88t-229 -32 q-161 0 -259.5 41.5t-145 128t-46.5 227.5z" />
<glyph unicode="d" horiz-adv-x="1186" d="M100 387v361q0 72 6.5 125t28.5 98q38 77 112.5 117t182.5 40q131 0 279 -75v90q0 76 -13 108t-57 43v228h383v-1155q0 -72 10.5 -99.5t57.5 -44.5v-223h-381v70q-139 -82 -279 -82q-120 0 -193 44t-105 131t-32 224zM422 430q0 -71 13.5 -117t45 -68t88.5 -22 q71 0 140 53v568q-86 43 -150 43q-79 0 -108 -54.5t-29 -175.5v-227z" />
<glyph unicode="e" horiz-adv-x="1081" d="M100 379v360q0 140 46 228t146 130t259 42q235 0 339.5 -96t104.5 -304v-245h-579v-97q0 -97 30.5 -141.5t104.5 -44.5q135 0 135 160v6h309v-266q-198 -129 -444 -129q-161 0 -259.5 41.5t-145 128t-46.5 227.5zM416 692h270v45q0 89 -32.5 131.5t-102.5 42.5 q-73 0 -104 -45t-31 -143v-31z" />
<glyph unicode="f" horiz-adv-x="705" d="M115 0v227q43 14 55 42.5t12 92.5v510h-67v246h67v96q0 158 82.5 239t239.5 81q66 0 143 -18v-224h-33q-118 0 -118 -129v-45h129v-246h-129v-507q0 -66 13 -96t56 -42v-227h-450z" />
<glyph unicode="g" horiz-adv-x="1176" d="M100 414v317q0 136 32 224.5t104.5 133t193.5 44.5q131 0 279 -84v69h381v-223q-47 -15 -57.5 -43t-10.5 -100v-691q0 -119 -12 -191.5t-56 -133.5q-111 -154 -364 -154q-235 0 -443 113v264h302v-6q0 -66 35 -102.5t94 -36.5q71 0 101 41t30 127v98q-150 -76 -283 -76 q-190 0 -274 129q-34 51 -43 116t-9 165zM422 475q0 -120 29.5 -174.5t107.5 -54.5q63 0 150 45v551q-67 53 -140 53q-57 0 -88.5 -22t-45 -68t-13.5 -117v-213z" />
<glyph unicode="h" horiz-adv-x="1204" d="M92 0v227q43 7 56.5 44t13.5 126v758q0 70 -11.5 98t-58.5 45v224h381v-473q129 75 252 75q128 0 201.5 -42.5t104 -127.5t30.5 -225v-346q0 -86 14 -119.5t60 -36.5v-227h-355q-21 58 -26.5 138t-5.5 200v350q0 108 -31.5 157.5t-110.5 49.5q-66 0 -133 -53v-463 q0 -76 12.5 -107.5t57.5 -44.5v-227h-451z" />
<glyph unicode="i" horiz-adv-x="633" d="M96 0v227q43 7 56.5 44t13.5 126v355q0 70 -11.5 98t-58.5 45v223h383v-739q0 -78 11.5 -108.5t56.5 -43.5v-227h-451zM180 1352v2q0 51 34.5 88t86.5 37t88.5 -36.5t36.5 -88.5t-36.5 -88.5t-86.5 -36.5q-32 0 -61 17.5t-45.5 45t-16.5 60.5z" />
<glyph unicode="j" horiz-adv-x="629" d="M51 -174h4q52 0 75 22t29.5 67.5t6.5 129.5v707q0 70 -11.5 98t-58.5 45v223h383v-1022q0 -148 -9 -235.5t-38.5 -150t-91 -94.5t-166.5 -32q-55 0 -123 13v229zM129 1352q0 72 51 125t125 53q47 0 88.5 -24t65.5 -65.5t24 -88.5q0 -48 -24.5 -88.5t-65.5 -64t-88 -23.5 q-45 0 -86 24t-65.5 64.5t-24.5 87.5z" />
<glyph unicode="k" horiz-adv-x="1116" d="M92 0v229q44 7 57 42.5t13 125.5v758q0 70 -11.5 98t-58.5 45v224h381v-822l135 187q45 61 45 143v88h404v-225q-68 -13 -125 -78l-150 -168l189 -332q11 -21 26.5 -39t39.5 -31t46 -18v-227h-272q-55 51 -106 143l-232 422v-186q0 -49 4.5 -78t19.5 -46t46 -26v-229 h-451z" />
<glyph unicode="l" horiz-adv-x="633" d="M96 0v227q43 7 56.5 44t13.5 126v752q0 70 -11.5 98t-58.5 45v224h383v-1137q0 -78 11.5 -108.5t56.5 -43.5v-227h-451z" />
<glyph unicode="m" horiz-adv-x="1778" d="M94 0v227q44 8 56 43t12 127v367q0 63 -11 88.5t-57 42.5v223h377v-69q129 75 248 75q184 0 278 -112q151 112 320 112q174 0 245.5 -94.5t71.5 -298.5v-350q0 -82 14.5 -116.5t59.5 -37.5v-227h-352q-21 55 -26 128t-5 210v350q0 68 -13 115t-43 69.5t-83 22.5 q-61 0 -135 -53v-461q0 -82 13.5 -116.5t59.5 -37.5v-227h-350q-22 58 -27.5 136.5t-5.5 201.5v350q0 68 -13 115t-42.5 69.5t-83.5 22.5q-64 0 -131 -53v-463q0 -78 11.5 -108.5t56.5 -43.5v-227h-445z" />
<glyph unicode="n" horiz-adv-x="1204" d="M92 0v227q43 7 56.5 44t13.5 126v355q0 70 -11.5 98t-58.5 45v223h381v-69q129 75 252 75q188 0 262 -93t74 -300v-348q0 -86 14 -119.5t60 -36.5v-227h-355q-21 58 -26.5 138t-5.5 200v350q0 108 -31.5 157.5t-110.5 49.5q-66 0 -133 -53v-463q0 -76 12.5 -107.5 t57.5 -44.5v-227h-451z" />
<glyph unicode="o" horiz-adv-x="1100" d="M100 379v360q0 140 46 228t146 130t259 42q238 0 343 -95t105 -305v-360q0 -141 -46 -227.5t-144 -128t-258 -41.5q-161 0 -259.5 41.5t-145 128t-46.5 227.5zM422 397q0 -98 29.5 -142t99.5 -44q69 0 98 44t29 142v326q0 99 -29 143.5t-98 44.5t-99 -45.5t-30 -142.5 v-326z" />
<glyph unicode="p" horiz-adv-x="1186" d="M92 -170q43 6 56.5 42.5t13.5 125.5v754q0 70 -11.5 98t-58.5 45v223h381v-69q147 84 279 84q120 0 193 -44.5t105.5 -133t32.5 -224.5v-305q0 -150 -28 -245t-100.5 -143t-202.5 -48q-133 0 -279 76v-84q0 -75 13 -108t57 -44v-227h-451v227zM473 276q88 -45 152 -45 q53 0 83.5 25.5t42 75t11.5 129.5v227q0 71 -13.5 117t-45.5 68t-89 22q-74 0 -141 -53v-566z" />
<glyph unicode="q" horiz-adv-x="1180" d="M100 426v305q0 136 32 224.5t104.5 133t193.5 44.5q131 0 279 -84v69h313v-1120q0 -89 12.5 -125.5t55.5 -42.5v-227h-451v227q44 11 57 44t13 108v84q-147 -76 -279 -76q-130 0 -203 48.5t-100 143.5t-27 244zM422 461q0 -80 11.5 -129.5t42 -75t83.5 -25.5q60 0 150 45 v566q-67 53 -140 53q-57 0 -88.5 -22t-45 -68t-13.5 -117v-227z" />
<glyph unicode="r" horiz-adv-x="723" d="M92 0v227q43 7 56.5 44t13.5 126v355q0 70 -11.5 98t-58.5 45v223h367v-92q67 96 180 96q15 0 47 -4v-327q-40 4 -51 4q-86 0 -124 -53.5t-38 -166.5v-196q0 -76 12.5 -107.5t57.5 -44.5v-227h-451z" />
<glyph unicode="s" horiz-adv-x="1028" d="M78 791q0 104 52 182.5t149 122t231 43.5q108 0 214 -24.5t210 -74.5v-282h-291v6q0 141 -119 141q-50 0 -78 -28t-28 -78q0 -38 22.5 -62.5t54.5 -37.5t110.5 -34.5t123.5 -37.5q87 -29 138.5 -67t75.5 -95t24 -143q0 -166 -103.5 -253t-300.5 -87q-246 0 -481 88v301 h311q0 -81 26.5 -118.5t88.5 -37.5q50 0 79 28t29 76q0 49 -33.5 78.5t-105.5 51.5q-10 3 -73 21t-108 34.5t-83 38.5q-71 43 -103 100.5t-32 147.5z" />
<glyph unicode="t" horiz-adv-x="678" d="M82 872v246h57v207l314 96v-303h133v-246h-133v-438q0 -77 9.5 -119.5t35.5 -63t73 -20.5h15v-227q-84 -24 -148 -24q-93 0 -151.5 28t-91.5 83.5t-44.5 133t-11.5 185.5v462h-57z" />
<glyph unicode="u" horiz-adv-x="1204" d="M90 891v227h332q14 -38 21 -86.5t9.5 -103t2.5 -146.5v-352q0 -105 31 -156t106 -51q65 0 137 56v460q0 79 -12 110t-58 42v227h381v-749q0 -51 4 -75.5t18 -41.5t48 -29v-223h-381v72q-132 -78 -252 -78q-128 0 -201.5 42.5t-104 127.5t-30.5 225v340q0 80 -10.5 117 t-40.5 45z" />
<glyph unicode="v" horiz-adv-x="1071" d="M31 895v223h434v-223q-47 -17 -47 -64q0 -20 6 -43l131 -464l119 481q4 14 4 33q0 21 -8 33t-33 24v223h403v-223q-32 -13 -47 -35t-26 -61l-226 -799h-399l-246 805q-11 37 -25 57.5t-40 32.5z" />
<glyph unicode="w" horiz-adv-x="1511" d="M12 895v223h437v-223q-26 -6 -36 -19t-10 -38q0 -33 3 -43l90 -392l178 715h196l166 -715l90 388q7 24 7 49q0 38 -39 55v223h399v-223q-53 -15 -74 -90l-219 -805h-303l-141 604l-140 -604h-299l-231 791q-10 38 -25.5 61.5t-48.5 42.5z" />
<glyph unicode="x" horiz-adv-x="1006" d="M35 0v227q21 6 32 15t33 34l240 281l-225 281q-45 52 -60 57v223h381v-104q0 -90 25 -125l80 -115l80 115q28 42 28 110v119h312v-223q-27 -10 -62 -47l-219 -252l231 -313q9 -12 17 -20.5t16 -15.5t16.5 -12t22.5 -8v-227h-387v109q0 50 -7 84.5t-34 72.5l-74 107 l-73 -105q-28 -38 -34.5 -68.5t-6.5 -78.5v-121h-332z" />
<glyph unicode="y" horiz-adv-x="1049" d="M23 895v223h438v-223q-41 -11 -41 -57q0 -18 6 -45l119 -496l106 496q6 21 6 43q0 40 -41 59v223h412v-223q-30 -11 -44 -32.5t-28 -67.5l-206 -750q-32 -118 -65.5 -203t-79 -142t-113.5 -86.5t-164 -29.5q-52 0 -105 13v243h8q57 0 89 22.5t53 80.5l-275 843 q-30 98 -75 109z" />
<glyph unicode="z" horiz-adv-x="1042" d="M61 0v221l529 678h-76q-111 0 -148 -25.5t-38 -119.5h-267v364h916v-198l-541 -699h94q71 0 110.5 14.5t56 50.5t16.5 101h264v-387h-916z" />
<glyph unicode="{" d="M158 426v209q14 0 22.5 -0.5t18.5 -1.5q82 0 131 26t70.5 82t21.5 146v250q0 82 6.5 134t28.5 91.5t69 67.5q93 49 281 49q24 0 40.5 -0.5t35.5 -1.5v-209q-12 1 -22 1.5t-25 0.5q-73 0 -109.5 -19t-49.5 -61t-13 -121v-240q0 -96 -16.5 -152.5t-61 -91.5t-129.5 -55 q84 -19 129 -53.5t61.5 -91t16.5 -152.5v-241q0 -78 13 -120t48.5 -60.5t110.5 -18.5q11 1 20.5 1.5t26.5 0.5v-209q-26 0 -41.5 -0.5t-34.5 -1.5q-188 0 -281 49q-47 28 -69 67t-28.5 90t-6.5 134v252q0 135 -51 193.5t-172 58.5q-13 0 -21.5 -0.5t-19.5 -1.5z" />
<glyph unicode="|" d="M410 -483v2048h206v-2048h-206z" />
<glyph unicode="}" d="M143 -205q17 0 26.5 -0.5t20.5 -1.5q74 0 110.5 18.5t49 60.5t12.5 120v239q0 94 16.5 152t61 93t129.5 54q-85 20 -129.5 55t-61 91.5t-16.5 152.5v242q0 78 -12.5 120t-49 60.5t-110.5 18.5q-14 0 -24 -0.5t-23 -1.5v209h68q202 0 289 -50q65 -36 84.5 -100t19.5 -190 v-252q0 -89 21.5 -145t71 -81.5t130.5 -25.5q10 1 18.5 1.5t22.5 0.5v-209h-37q-85 0 -134 -24.5t-71 -79.5t-22 -146v-252q0 -125 -19 -189.5t-85 -101.5q-93 -49 -281 -49q-18 1 -33.5 1.5t-42.5 0.5v209z" />
<glyph unicode="~" horiz-adv-x="1706" d="M178 418v221q110 73 205.5 108t181.5 35q84 0 151.5 -16.5t143.5 -42.5q56 -20 104 -36.5t97.5 -27t93.5 -10.5q58 0 117.5 16.5t126.5 53t131 84.5v-221q-97 -66 -192.5 -102t-186.5 -36q-89 0 -184 31q-185 63 -250 81.5t-154 18.5q-163 0 -385 -157z" />
<glyph horiz-adv-x="1233" d="M92 0v223l606 1010h-98q-84 0 -127 -10.5t-63.5 -45t-20.5 -108.5v-57h-278v510h1013v-228l-587 -993h108q68 0 107.5 13t57 46t17.5 91v51h306v-502h-1041zM356 1878l166 -262h201l166 262h-119l-147 -154l-150 154h-117z" />
<glyph d="M340 -274q0 74 45.5 138t144.5 136h97q-127 -100 -127 -205q0 -80 82 -80h102v-174h-106q-238 0 -238 185z" />
<glyph d="M297 1688l166 -263h201l165 263h-118l-148 -154l-149 154h-117z" />
<glyph horiz-adv-x="1229" d="M47 526v234l180 82v276q0 85 -12.5 116t-62.5 42v246h505v-246q-51 -11 -64 -43t-13 -115v-155l292 129v-232l-292 -131v-440h114q78 0 116.5 23.5t50 71.5t11.5 138v168h306v-690h-1026v256q50 11 62.5 42t12.5 116v194z" />
<glyph horiz-adv-x="825" d="M76 1004v253q0 96 34.5 158t108 91.5t195.5 29.5q91 0 154 -16t104 -51t59.5 -86.5t18.5 -125.5v-253q0 -146 -78.5 -211.5t-257.5 -65.5q-91 0 -153 16t-104.5 50.5t-61.5 86.5t-19 124zM317 1018q0 -70 22 -100.5t75 -30.5q51 0 72.5 30.5t21.5 100.5v227 q0 69 -21.5 100t-72.5 31q-52 0 -74.5 -31t-22.5 -100v-227z" />
<glyph horiz-adv-x="426" d="M-354 0l878 1522h256l-876 -1522h-258z" />
<glyph d="M203 1585h123q7 -77 52.5 -112t133.5 -35q90 0 134 34.5t50 112.5h123q-12 -157 -85.5 -230t-221.5 -73q-97 0 -164 32.5t-102.5 100.5t-42.5 170z" />
<glyph horiz-adv-x="1042" d="M61 0v221l529 678h-76q-111 0 -148 -25.5t-38 -119.5h-267v364h916v-198l-541 -699h94q71 0 110.5 14.5t56 50.5t16.5 101h264v-387h-916zM274 1477l166 -263h201l166 263h-119l-147 -154l-150 154h-117z" />
<glyph unicode="&#xa1;" horiz-adv-x="621" d="M119 170q0 37 8 94l96 789h172l99 -789q8 -63 8 -94q0 -89 -51.5 -138.5t-141.5 -49.5q-88 0 -139 51t-51 137zM137 1380q0 47 23 86.5t62.5 62.5t86.5 23q69 0 120.5 -52.5t51.5 -119.5q0 -45 -23 -85.5t-62 -64.5t-87 -24q-71 0 -121.5 51.5t-50.5 122.5z" />
<glyph unicode="&#xa2;" horiz-adv-x="1241" d="M201 555v358q0 173 69 264t230 121v172h291v-172q144 -26 286 -106v-315h-291v36q0 89 -32.5 130.5t-102.5 41.5q-73 0 -104 -45t-31 -143v-324q0 -65 13 -106t43.5 -61.5t78.5 -20.5q76 0 105.5 43.5t29.5 142.5v66h291v-361q-127 -84 -286 -108v-207h-291v207 q-109 21 -174.5 68.5t-95 124.5t-29.5 194z" />
<glyph unicode="&#xa3;" horiz-adv-x="1241" d="M82 651v260h80v154q0 157 60.5 267.5t176.5 165t283 54.5q249 0 465 -145v-367h-309v25q0 178 -170 178q-90 0 -130 -45t-40 -141v-146h428v-260h-428v-362h149q67 0 104.5 12.5t53.5 44t16 90.5h326v-436h-1063v256q34 7 51.5 25.5t22 45.5t4.5 87v237h-80z" />
<glyph unicode="&#xa4;" horiz-adv-x="1241" d="M68 438l202 205q-75 106 -75 242q0 135 75 241l-202 205l104 107l205 -203q107 78 244 78q140 0 247 -78l203 203l105 -107l-203 -205q76 -107 76 -241q0 -132 -76 -242l203 -205l-105 -104l-203 203q-105 -78 -245 -78q-142 0 -246 78l-205 -203zM346 885 q0 -74 37 -137.5t101.5 -100.5t138.5 -37q55 0 105.5 21.5t89 59t60 88.5t21.5 106q0 56 -21.5 106t-60 88.5t-89 60t-105.5 21.5q-74 0 -138 -38t-101.5 -101t-37.5 -137z" />
<glyph unicode="&#xa5;" horiz-adv-x="1241" d="M37 545v131h358l-82 172h-276v131h207l-94 207q-38 78 -82 90v246h444v-207q0 -70 29 -141l104 -256l100 247q31 73 31 148v209h391v-246q-40 -12 -80 -88l-106 -209h197v-131h-263l-84 -172h347v-131h-385v-142q0 -77 13.5 -108.5t63.5 -38.5v-256h-505v256 q44 9 60.5 41t16.5 102v146h-405z" />
<glyph unicode="&#xa6;" d="M410 -350v758h206v-758h-206zM410 674v758h206v-758h-206z" />
<glyph unicode="&#xa7;" d="M43 674q0 98 39.5 164.5t120.5 107.5q-119 81 -119 254q0 164 111.5 258t316.5 94q101 0 207 -32t190 -90v-232h-272v19q0 69 -31.5 107t-89.5 38q-44 0 -76 -17.5t-48.5 -50t-16.5 -73.5q0 -50 24 -82.5t66.5 -54.5t125.5 -51.5t132 -49.5q136 -55 200 -133.5t64 -198.5 q0 -191 -162 -270q121 -81 121 -266q0 -99 -51 -178t-147 -122.5t-224 -43.5q-78 0 -154.5 15t-145 43t-124.5 67v231h273v-25q0 -141 135 -141q66 0 106.5 38t40.5 97q0 56 -22.5 89.5t-61.5 54t-121.5 50t-142.5 52.5q-135 54 -199.5 134t-64.5 198zM268 721 q0 -46 24.5 -75.5t67.5 -50t139.5 -54.5t164.5 -62q40 30 59.5 62t19.5 73q0 44 -26 72.5t-70 49t-145.5 58t-155.5 60.5q-78 -47 -78 -133z" />
<glyph unicode="&#xa8;" d="M195 1432q0 56 39.5 96.5t95.5 40.5q57 0 97 -40t40 -97t-40.5 -96.5t-96.5 -39.5q-54 0 -94.5 41.5t-40.5 94.5zM557 1434q0 54 38.5 94.5t96.5 40.5q56 0 96.5 -39.5t40.5 -95.5q0 -58 -41 -98t-96 -40q-56 0 -95.5 41.5t-39.5 96.5z" />
<glyph unicode="&#xa9;" horiz-adv-x="1706" d="M111 733q0 101 24.5 193.5t74 178.5t120.5 157q106 107 238 162t284 55q311 0 530 -219q106 -106 160.5 -241.5t54.5 -285.5q0 -310 -215 -520q-110 -107 -247 -165t-283 -58q-95 0 -188.5 25t-177 74t-156.5 122q-107 107 -163 241t-56 281zM233 735q0 -255 183 -438 q182 -182 438 -182q123 0 236.5 47t205.5 137q179 176 179 436q0 127 -46.5 240t-134.5 199q-91 91 -201.5 136.5t-238.5 45.5q-129 0 -240 -45.5t-198.5 -135t-135 -203.5t-47.5 -237zM453 729q0 135 50 238.5t141 158t212 54.5q153 0 250.5 -78t105.5 -205h-188 q-8 71 -52.5 109t-119.5 38q-58 0 -102.5 -36t-68.5 -107t-24 -166q0 -146 52.5 -223.5t150.5 -77.5q72 0 116.5 42.5t53.5 119.5h193q-6 -91 -53.5 -161.5t-130 -108t-185.5 -37.5q-89 0 -164 30t-127.5 87t-81 140t-28.5 183z" />
<glyph unicode="&#xaa;" horiz-adv-x="850" d="M53 942q0 81 48 134.5t140.5 91.5t266.5 89v43q0 89 -86 89t-86 -91v-24h-234v180q168 82 332 82q165 0 236 -62t71 -202v-260q0 -39 4 -62t15.5 -34.5t36.5 -16.5v-160h-281v82q-110 -94 -246 -94q-98 0 -157.5 58.5t-59.5 156.5zM305 961q0 -28 19 -46t49 -18 q62 0 135 76v135q-112 -41 -157.5 -71.5t-45.5 -75.5z" />
<glyph unicode="&#xab;" horiz-adv-x="967" d="M115 578l149 374h217l-143 -374l143 -375h-217zM502 578l151 374h217l-145 -374l145 -375h-217z" />
<glyph unicode="&#xac;" horiz-adv-x="1706" d="M254 668v196h1198v-502h-199v306h-999z" />
<glyph unicode="&#xad;" horiz-adv-x="1706" d="M254 510v203h1198v-203h-1198z" />
<glyph unicode="&#xae;" horiz-adv-x="1706" d="M111 733q0 205 108 387q101 171 266 265t367 94q99 0 195 -25t183.5 -77t155.5 -122q104 -104 157.5 -237.5t53.5 -284.5q0 -154 -56 -288t-163 -238q-109 -106 -245 -161.5t-281 -55.5q-74 0 -146.5 15t-138 43t-128.5 71.5t-115 95.5q-104 105 -158.5 238.5 t-54.5 279.5zM233 735q0 -122 45.5 -233t133.5 -201q57 -59 130 -102t149.5 -64.5t160.5 -21.5q249 0 440 182q87 84 135 194.5t48 233.5q0 133 -44.5 245.5t-132.5 200.5q-182 187 -444 187q-254 0 -432 -176q-91 -91 -140 -206.5t-49 -238.5zM545 336v825h323 q353 0 353 -237q0 -81 -48.5 -139.5t-132.5 -79.5l185 -369h-224l-157 338h-99v-338h-200zM745 795h99q86 0 128 27.5t42 88.5q0 64 -44 93.5t-136 29.5h-89v-239z" />
<glyph unicode="&#xaf;" d="M225 1354v155h574v-155h-574z" />
<glyph unicode="&#xb0;" d="M248 1497q0 73 35 133.5t96.5 95.5t132.5 35q72 0 133.5 -35t97 -95.5t35.5 -133.5q0 -72 -35.5 -134t-95.5 -98t-135 -36q-112 0 -188 78.5t-76 189.5zM391 1495q0 -51 35 -86t86 -35q52 0 87.5 35.5t35.5 85.5q0 51 -36 87t-87 36t-86 -35t-35 -88z" />
<glyph unicode="&#xb1;" horiz-adv-x="1706" d="M254 -2v199h1198v-199h-1198zM254 698v199h498v326h202v-326h498v-199h-498v-325h-202v325h-498z" />
<glyph unicode="&#xb2;" horiz-adv-x="819" d="M68 608v213q0 74 25 116t85 83l258 182q72 54 72 96q0 38 -24 59t-68 21q-52 0 -81.5 -26.5t-29.5 -73.5v-68h-219v246q61 39 147.5 61.5t180.5 22.5q174 0 255 -58t81 -184q0 -88 -36 -138t-124 -113l-221 -160q-33 -23 -48.5 -43t-15.5 -51v-9h98q65 0 85 18t20 68v29 h246v-291h-686z" />
<glyph unicode="&#xb3;" horiz-adv-x="819" d="M61 674v217h230v-8q0 -109 108 -109q105 0 105 109q0 63 -32 86.5t-107 23.5h-125v156h133q64 0 99.5 27.5t35.5 76.5q0 50 -31 76.5t-86 26.5q-92 0 -98 -105h-219v207q69 39 156 60.5t178 21.5q159 0 243 -64t84 -188q0 -164 -172 -207q180 -24 180 -219 q0 -135 -86 -203.5t-260 -68.5q-84 0 -168.5 21t-167.5 63z" />
<glyph unicode="&#xb4;" d="M350 1249l197 371h258l-313 -371h-142z" />
<glyph unicode="&#xb5;" horiz-adv-x="1249" d="M-63 -438l268 1530h289l-76 -435q-31 -167 -31 -268q0 -92 42 -138t128 -46q55 0 93.5 22.5t67 67.5t49.5 113t38 170l90 514h289l-193 -1092h-268l18 117q-41 -78 -92.5 -114t-122.5 -36q-130 0 -213 121l-90 -526h-286z" />
<glyph unicode="&#xb6;" d="M41 1130q0 102 47.5 181.5t136.5 123.5t207 44h551v-111h-113v-1368h-151v1368h-160v-1368h-151v784q-170 7 -268.5 102.5t-98.5 243.5z" />
<glyph unicode="&#xb7;" horiz-adv-x="621" d="M147 764q0 42 22.5 80t60.5 61t81 23q69 0 115.5 -48.5t46.5 -115.5q0 -68 -48 -115t-114 -47q-65 0 -114.5 49.5t-49.5 112.5z" />
<glyph unicode="&#xb8;" d="M283 -309q166 -43 256 -43q100 0 100 73q0 38 -27.5 54t-91.5 16q-37 0 -59 -2l2 211h100v-90h15q235 0 235 -191q0 -200 -264 -200q-102 0 -266 43v129z" />
<glyph unicode="&#xb9;" horiz-adv-x="819" d="M244 608v154q34 7 42.5 25.5t8.5 68.5v424q0 50 -8.5 68.5t-42.5 25.5v148h282v-666q0 -47 8.5 -67t43.5 -27v-154h-334z" />
<glyph unicode="&#xba;" horiz-adv-x="674" d="M35 1159q0 83 40 153t110.5 111t152.5 41t152 -40.5t110.5 -111.5t40.5 -153q0 -81 -41 -151.5t-111 -111t-153 -40.5q-82 0 -151.5 40t-109.5 110.5t-40 152.5zM162 1161q0 -72 52 -124t124 -52q49 0 88.5 24.5t62.5 64.5t23 87q0 74 -50 124t-124 50 q-73 0 -124.5 -50.5t-51.5 -123.5z" />
<glyph unicode="&#xbb;" horiz-adv-x="967" d="M98 203l144 375l-144 374h215l152 -374l-152 -375h-215zM485 203l146 375l-146 374h217l152 -374l-152 -375h-217z" />
<glyph unicode="&#xbc;" horiz-adv-x="1991" d="M231 670v143q25 5 35 14.5t12.5 25t2.5 48.5v395q0 48 -7.5 64.5t-42.5 23.5v138h271v-621q0 -33 2.5 -48.5t12 -25t32.5 -14.5v-143h-318zM428 0l879 1522h256l-877 -1522h-258zM1241 227v183l332 442h274v-463h64v-162h-64v-12q0 -36 9 -51t40 -21v-143h-307v143 q28 6 37.5 21t9.5 51v12h-395zM1440 389h196v268z" />
<glyph unicode="&#xbd;" horiz-adv-x="1991" d="M231 670v143q25 5 35 14.5t12.5 25t2.5 48.5v395q0 48 -7.5 64.5t-42.5 23.5v138h271v-621q0 -33 2.5 -48.5t12 -25t32.5 -14.5v-143h-318zM428 0l879 1522h256l-877 -1522h-258zM1272 0v199q0 43 11 75.5t32.5 56t62.5 54.5l246 170q68 47 68 90q0 35 -23.5 54.5 t-64.5 19.5q-47 0 -76 -25t-29 -69v-64h-209v230q56 36 139 56.5t175 20.5q164 0 241.5 -54t77.5 -171q0 -82 -34 -129t-117 -106l-211 -148q-33 -23 -47.5 -41.5t-14.5 -46.5v-6h94q62 0 81.5 16t19.5 64v26h235v-272h-657z" />
<glyph unicode="&#xbe;" horiz-adv-x="1991" d="M59 731v203h217v-8q0 -101 105 -101q100 0 100 101q0 60 -30.5 82t-102.5 22h-119v144h127q62 0 94.5 25.5t32.5 72.5t-28.5 71.5t-79.5 24.5q-90 0 -96 -98h-209v194q64 35 148.5 54.5t170.5 19.5q153 0 233 -59.5t80 -173.5q0 -153 -165 -193q172 -24 172 -207 q0 -125 -83.5 -188.5t-246.5 -63.5q-168 0 -320 78zM428 0l879 1522h256l-877 -1522h-258zM1241 227v183l332 442h274v-463h64v-162h-64v-12q0 -36 9 -51t40 -21v-143h-307v143q28 6 37.5 21t9.5 51v12h-395zM1440 389h196v268z" />
<glyph unicode="&#xbf;" horiz-adv-x="1139" d="M82 401q0 115 31.5 189.5t85 121t157.5 111.5q72 45 100.5 64t50 39t34 46.5t12.5 65.5v17h338v-105q0 -66 -12 -110t-40.5 -79t-88.5 -81q-52 -39 -147 -99t-133 -100.5t-38 -95.5q0 -61 42 -97t112 -36q162 0 162 178v43h329v-350q-94 -69 -215.5 -105t-265.5 -36 q-514 0 -514 419zM551 1380q0 47 23 87.5t62.5 63.5t86.5 23q45 0 85 -24.5t64.5 -65.5t24.5 -84q0 -69 -51.5 -120.5t-122.5 -51.5q-72 0 -122 50t-50 122z" />
<glyph unicode="&#xc0;" horiz-adv-x="1223" d="M47 0v256q41 12 59 47.5t33 112.5l215 1106h523l237 -1131q13 -64 31.5 -94t56.5 -41v-256h-518v256q38 3 57 23t19 49q0 18 -4 45l-13 63h-294l-13 -57q-4 -28 -4 -47q0 -37 20 -56t62 -20v-256h-467zM412 1898h206l156 -264h-112zM487 653h207l-104 582z" />
<glyph unicode="&#xc1;" horiz-adv-x="1223" d="M47 0v256q41 12 59 47.5t33 112.5l215 1106h523l237 -1131q13 -64 31.5 -94t56.5 -41v-256h-518v256q38 3 57 23t19 49q0 18 -4 45l-13 63h-294l-13 -57q-4 -28 -4 -47q0 -37 20 -56t62 -20v-256h-467zM487 653h207l-104 582zM496 1614l155 264h207l-250 -264h-112z" />
<glyph unicode="&#xc2;" horiz-adv-x="1223" d="M47 0v256q41 12 59 47.5t33 112.5l215 1106h523l237 -1131q13 -64 31.5 -94t56.5 -41v-256h-518v256q38 3 57 23t19 49q0 18 -4 45l-13 63h-294l-13 -57q-4 -28 -4 -47q0 -37 20 -56t62 -20v-256h-467zM352 1602l166 262h201l166 -262h-119l-148 153l-149 -153h-117z M487 653h207l-104 582z" />
<glyph unicode="&#xc3;" horiz-adv-x="1223" d="M47 0v256q41 12 59 47.5t33 112.5l215 1106h523l237 -1131q13 -64 31.5 -94t56.5 -41v-256h-518v256q38 3 57 23t19 49q0 18 -4 45l-13 63h-294l-13 -57q-4 -28 -4 -47q0 -37 20 -56t62 -20v-256h-467zM377 1614q18 94 57 140t103 46q31 0 65 -10l74 -18q23 -5 43 -5 q47 0 65 68h86q-22 -100 -60.5 -147.5t-102.5 -47.5q-35 0 -56 7l-69 20q-19 6 -50 6q-51 0 -67 -59h-88zM487 653h207l-104 582z" />
<glyph unicode="&#xc4;" horiz-adv-x="1223" d="M47 0v256q41 12 59 47.5t33 112.5l215 1106h523l237 -1131q13 -64 31.5 -94t56.5 -41v-256h-518v256q38 3 57 23t19 49q0 18 -4 45l-13 63h-294l-13 -57q-4 -28 -4 -47q0 -37 20 -56t62 -20v-256h-467zM340 1729q0 50 36 85t85 35t86 -36t37 -87q0 -49 -35.5 -84.5 t-85.5 -35.5q-47 0 -83 36t-36 82zM487 653h207l-104 582zM670 1724q0 49 35 84t86 35t86.5 -35.5t35.5 -85.5q0 -51 -36 -87t-84 -36q-49 0 -85 36t-36 85z" />
<glyph unicode="&#xc5;" horiz-adv-x="1223" d="M47 0v256q41 12 59 47.5t33 112.5l215 1106h523l237 -1131q13 -64 31.5 -94t56.5 -41v-256h-518v256q38 3 57 23t19 49q0 18 -4 45l-13 63h-294l-13 -57q-4 -28 -4 -47q0 -37 20 -56t62 -20v-256h-467zM401 1808q0 58 27.5 105.5t76 75.5t105.5 28q58 0 106.5 -28 t76.5 -75.5t28 -105.5q0 -87 -61 -150t-150 -63q-87 0 -148 62.5t-61 150.5zM487 653h207l-104 582zM514 1808q0 -40 28 -68t68 -28t68.5 27.5t28.5 66.5t-29 68t-68 29l-2 2q-41 0 -67.5 -27.5t-26.5 -69.5z" />
<glyph unicode="&#xc6;" horiz-adv-x="1858" d="M25 0v256q63 16 110 137l453 1129h1186v-465h-326v16q0 90 -39.5 124t-140.5 34h-127v-318h411v-256h-411v-366h131q108 0 142 33.5t34 130.5v55h326v-510h-1053v256q43 9 58.5 38.5t15.5 90.5v37h-326l-25 -55q-14 -37 -14 -64q0 -17 14 -31.5t35 -15.5v-256h-454z M549 647h246v684z" />
<glyph unicode="&#xc7;" horiz-adv-x="1237" d="M109 512v498q0 135 10.5 216.5t48.5 145.5q57 96 167.5 138t285.5 42q249 0 491 -112v-430h-332v30q0 205 -159 205q-89 0 -125.5 -53.5t-36.5 -169.5v-522q0 -117 37 -170.5t125 -53.5t123.5 54t35.5 170v108h332v-522q-107 -56 -234 -86.5t-257 -30.5q-158 0 -264 35.5 t-167 112.5q-36 46 -53.5 103.5t-22.5 120t-5 171.5zM424 -272q129 -33 203 -33q78 0 78 57q0 29 -21.5 42t-71.5 13h-43v168h78v-73h10q187 0 187 -150q0 -160 -209 -160q-82 0 -211 33v103z" />
<glyph unicode="&#xc8;" horiz-adv-x="1262" d="M102 0v256q34 7 51.5 25.5t22 45.5t4.5 87v704q0 82 -13 114.5t-65 43.5v246h1072v-465h-330v16q0 90 -40 124t-142 34h-130v-318h416v-256h-416v-366h154q92 0 125 36.5t33 127.5v55h330v-510h-1072zM403 1898h207l156 -264h-113z" />
<glyph unicode="&#xc9;" horiz-adv-x="1262" d="M102 0v256q34 7 51.5 25.5t22 45.5t4.5 87v704q0 82 -13 114.5t-65 43.5v246h1072v-465h-330v16q0 90 -40 124t-142 34h-130v-318h416v-256h-416v-366h154q92 0 125 36.5t33 127.5v55h330v-510h-1072zM549 1624l156 264h206l-249 -264h-113z" />
<glyph unicode="&#xca;" horiz-adv-x="1262" d="M102 0v256q34 7 51.5 25.5t22 45.5t4.5 87v704q0 82 -13 114.5t-65 43.5v246h1072v-465h-330v16q0 90 -40 124t-142 34h-130v-318h416v-256h-416v-366h154q92 0 125 36.5t33 127.5v55h330v-510h-1072zM387 1602l166 262h201l166 -262h-119l-148 153l-149 -153h-117z" />
<glyph unicode="&#xcb;" horiz-adv-x="1262" d="M102 0v256q34 7 51.5 25.5t22 45.5t4.5 87v704q0 82 -13 114.5t-65 43.5v246h1072v-465h-330v16q0 90 -40 124t-142 34h-130v-318h416v-256h-416v-366h154q92 0 125 36.5t33 127.5v55h330v-510h-1072zM354 1739q0 49 36 85t85 36q51 0 87 -37t36 -86q0 -50 -35.5 -85.5 t-85.5 -35.5q-46 0 -82.5 35.5t-36.5 83.5zM684 1735q0 47 35.5 82.5t85.5 35.5t86.5 -34.5t36.5 -85.5q0 -53 -36 -88t-85 -35t-85 36t-36 85z" />
<glyph unicode="&#xcc;" horiz-adv-x="725" d="M109 0v256q35 7 51.5 25.5t21 45.5t4.5 87v704q0 82 -13 114.5t-64 43.5v246h505v-246q-35 -7 -51 -25.5t-20 -46.5t-4 -86v-704q0 -60 4 -87t20 -45.5t51 -25.5v-256h-505zM137 1898h207l156 -264h-113z" />
<glyph unicode="&#xcd;" horiz-adv-x="725" d="M109 0v256q35 7 51.5 25.5t21 45.5t4.5 87v704q0 82 -13 114.5t-64 43.5v246h505v-246q-35 -7 -51 -25.5t-20 -46.5t-4 -86v-704q0 -60 4 -87t20 -45.5t51 -25.5v-256h-505zM242 1634l155 264h207l-250 -264h-112z" />
<glyph unicode="&#xce;" horiz-adv-x="725" d="M96 1616l166 262h201l166 -262h-119l-148 153l-149 -153h-117zM109 0v256q35 7 51.5 25.5t21 45.5t4.5 87v704q0 82 -13 114.5t-64 43.5v246h505v-246q-35 -7 -51 -25.5t-20 -46.5t-4 -86v-704q0 -60 4 -87t20 -45.5t51 -25.5v-256h-505z" />
<glyph unicode="&#xcf;" horiz-adv-x="725" d="M84 1733q0 50 36 85t85 35t86 -36t37 -86t-35.5 -85.5t-85.5 -35.5q-47 0 -83 36t-36 83zM109 0v256q35 7 51.5 25.5t21 45.5t4.5 87v704q0 82 -13 114.5t-64 43.5v246h505v-246q-35 -7 -51 -25.5t-20 -46.5t-4 -86v-704q0 -60 4 -87t20 -45.5t51 -25.5v-256h-505z M414 1729q0 47 35.5 82.5t85.5 35.5q51 0 86.5 -35.5t35.5 -85.5q0 -51 -35.5 -86.5t-84.5 -35.5t-85 36t-36 84z" />
<glyph unicode="&#xd0;" horiz-adv-x="1352" d="M47 676v213h180v229q0 85 -12.5 116t-62.5 42v246h505q224 0 350 -51t181 -173.5t55 -349.5v-364q0 -181 -28.5 -292.5t-93.5 -174.5t-175.5 -90t-288.5 -27h-505v256q50 11 62.5 42t12.5 116v262h-180zM580 305h104q64 0 105.5 9.5t64 34.5t30 63.5t7.5 105.5v459 q0 142 -35 194t-154 52h-20l-102 -2v-332h155v-213h-155v-371z" />
<glyph unicode="&#xd1;" horiz-adv-x="1374" d="M102 0v256q50 6 64 39.5t14 114.5v735q0 62 -15 91.5t-63 39.5v246h398l383 -856v456q0 76 -16.5 110.5t-65.5 43.5v246h483v-246q-40 -12 -57 -32t-21 -49t-4 -89v-1106h-319l-383 864v-454q0 -80 15.5 -113.5t64.5 -40.5v-256h-478zM473 1612q20 96 58 141t102 45 q32 0 65 -10l74 -19q28 -4 43 -4q46 0 66 68h86q-21 -98 -60.5 -146.5t-103.5 -48.5q-35 0 -55 7l-70 20q-19 6 -49 6q-52 0 -68 -59h-88z" />
<glyph unicode="&#xd2;" horiz-adv-x="1239" d="M109 512v498q0 108 4.5 170t21.5 119.5t55 105.5q61 78 167 112.5t264 34.5q156 0 260.5 -34.5t167.5 -112.5q53 -67 67 -154t14 -241v-498q0 -154 -14 -241t-67 -154q-62 -77 -167 -112.5t-261 -35.5q-158 0 -264 35.5t-167 112.5q-37 47 -54.5 104.5t-22 119.5 t-4.5 171zM395 1929h207l156 -264h-113zM459 500q0 -117 37 -170.5t125 -53.5t123.5 54t35.5 170v522q0 115 -35 169t-124 54t-125.5 -53.5t-36.5 -169.5v-522z" />
<glyph unicode="&#xd3;" horiz-adv-x="1239" d="M109 512v498q0 108 4.5 170t21.5 119.5t55 105.5q61 78 167 112.5t264 34.5q156 0 260.5 -34.5t167.5 -112.5q53 -67 67 -154t14 -241v-498q0 -154 -14 -241t-67 -154q-62 -77 -167 -112.5t-261 -35.5q-158 0 -264 35.5t-167 112.5q-37 47 -54.5 104.5t-22 119.5 t-4.5 171zM459 500q0 -117 37 -170.5t125 -53.5t123.5 54t35.5 170v522q0 115 -35 169t-124 54t-125.5 -53.5t-36.5 -169.5v-522zM479 1665l156 264h207l-250 -264h-113z" />
<glyph unicode="&#xd4;" horiz-adv-x="1239" d="M109 512v498q0 108 4.5 170t21.5 119.5t55 105.5q61 78 167 112.5t264 34.5q156 0 260.5 -34.5t167.5 -112.5q53 -67 67 -154t14 -241v-498q0 -154 -14 -241t-67 -154q-62 -77 -167 -112.5t-261 -35.5q-158 0 -264 35.5t-167 112.5q-37 47 -54.5 104.5t-22 119.5 t-4.5 171zM365 1610l165 262h201l166 -262h-119l-147 153l-150 -153h-116zM459 500q0 -117 37 -170.5t125 -53.5t123.5 54t35.5 170v522q0 115 -35 169t-124 54t-125.5 -53.5t-36.5 -169.5v-522z" />
<glyph unicode="&#xd5;" horiz-adv-x="1239" d="M109 512v498q0 108 4.5 170t21.5 119.5t55 105.5q61 78 167 112.5t264 34.5q156 0 260.5 -34.5t167.5 -112.5q53 -67 67 -154t14 -241v-498q0 -154 -14 -241t-67 -154q-62 -77 -167 -112.5t-261 -35.5q-158 0 -264 35.5t-167 112.5q-37 47 -54.5 104.5t-22 119.5 t-4.5 171zM391 1645q20 96 58 141t102 45q32 0 65 -10l74 -19q30 -4 43 -4q46 0 66 68h86q-21 -98 -60.5 -146.5t-103.5 -48.5q-35 0 -55 6l-70 21q-18 6 -49 6q-26 0 -42 -14t-26 -45h-88zM459 500q0 -117 37 -170.5t125 -53.5t123.5 54t35.5 170v522q0 115 -35 169 t-124 54t-125.5 -53.5t-36.5 -169.5v-522z" />
<glyph unicode="&#xd6;" horiz-adv-x="1239" d="M109 512v498q0 108 4.5 170t21.5 119.5t55 105.5q61 78 167 112.5t264 34.5q156 0 260.5 -34.5t167.5 -112.5q53 -67 67 -154t14 -241v-498q0 -154 -14 -241t-67 -154q-62 -77 -167 -112.5t-261 -35.5q-158 0 -264 35.5t-167 112.5q-37 47 -54.5 104.5t-22 119.5 t-4.5 171zM332 1757q0 49 36 85t85 36q50 0 86 -36t36 -87q0 -50 -35.5 -85.5t-84.5 -35.5q-48 0 -83.5 36.5t-35.5 82.5zM459 500q0 -117 37 -170.5t125 -53.5t123.5 54t35.5 170v522q0 115 -35 169t-124 54t-125.5 -53.5t-36.5 -169.5v-522zM662 1753q0 49 35 84t85 35 q52 0 87.5 -35.5t35.5 -85.5q0 -53 -36 -88t-85 -35q-48 0 -84 36t-36 85z" />
<glyph unicode="&#xd7;" horiz-adv-x="1706" d="M276 160l451 450l-451 453l140 139l450 -450l451 450l141 -139l-450 -453l450 -450l-141 -140l-451 451l-450 -451z" />
<glyph unicode="&#xd8;" horiz-adv-x="1239" d="M96 -8l76 153q-26 39 -40 91t-18.5 119t-4.5 157v498q0 108 4.5 170t21.5 119.5t55 105.5q61 78 167 112.5t264 34.5q134 0 219 -22l55 121l248 -125l-72 -156q37 -57 48 -138t11 -222v-498q0 -136 -11 -218.5t-48 -143.5q-40 -66 -100.5 -105t-147.5 -57.5t-202 -18.5 q-137 0 -226 25l-55 -123zM459 500q0 -117 37 -170.5t125 -53.5t123.5 54t35.5 170v522q0 115 -35 169t-124 54t-125.5 -53.5t-36.5 -169.5v-522z" />
<glyph unicode="&#xd9;" horiz-adv-x="1327" d="M94 1276v246h510v-246q-50 -16 -64 -56t-14 -128v-590q0 -78 15 -126.5t51 -74t94 -25.5q166 0 166 220v639q0 67 -17.5 98t-62.5 43v246h461v-246q-51 -11 -66.5 -46.5t-15.5 -115.5v-631q0 -88 -7 -148.5t-27 -113.5t-60 -100q-61 -72 -159.5 -112t-219.5 -40 q-139 0 -235.5 33t-154 98.5t-84 167t-26.5 240.5v614q0 74 -14.5 104t-69.5 50zM420 1878h207l155 -264h-112z" />
<glyph unicode="&#xda;" horiz-adv-x="1327" d="M94 1276v246h510v-246q-50 -16 -64 -56t-14 -128v-590q0 -78 15 -126.5t51 -74t94 -25.5q166 0 166 220v639q0 67 -17.5 98t-62.5 43v246h461v-246q-51 -11 -66.5 -46.5t-15.5 -115.5v-631q0 -88 -7 -148.5t-27 -113.5t-60 -100q-61 -72 -159.5 -112t-219.5 -40 q-139 0 -235.5 33t-154 98.5t-84 167t-26.5 240.5v614q0 74 -14.5 104t-69.5 50zM616 1624l156 264h207l-250 -264h-113z" />
<glyph unicode="&#xdb;" horiz-adv-x="1327" d="M94 1276v246h510v-246q-50 -16 -64 -56t-14 -128v-590q0 -78 15 -126.5t51 -74t94 -25.5q166 0 166 220v639q0 67 -17.5 98t-62.5 43v246h461v-246q-51 -11 -66.5 -46.5t-15.5 -115.5v-631q0 -88 -7 -148.5t-27 -113.5t-60 -100q-61 -72 -159.5 -112t-219.5 -40 q-139 0 -235.5 33t-154 98.5t-84 167t-26.5 240.5v614q0 74 -14.5 104t-69.5 50zM430 1597l166 263h201l166 -263h-119l-148 154l-149 -154h-117z" />
<glyph unicode="&#xdc;" horiz-adv-x="1327" d="M94 1276v246h510v-246q-50 -16 -64 -56t-14 -128v-590q0 -78 15 -126.5t51 -74t94 -25.5q166 0 166 220v639q0 67 -17.5 98t-62.5 43v246h461v-246q-51 -11 -66.5 -46.5t-15.5 -115.5v-631q0 -88 -7 -148.5t-27 -113.5t-60 -100q-61 -72 -159.5 -112t-219.5 -40 q-139 0 -235.5 33t-154 98.5t-84 167t-26.5 240.5v614q0 74 -14.5 104t-69.5 50zM397 1735q0 50 36 85t85 35q51 0 87 -36t36 -86t-35.5 -85.5t-85.5 -35.5q-46 0 -82.5 35.5t-36.5 83.5zM727 1731q0 47 35.5 82.5t85.5 35.5t86.5 -34.5t36.5 -85.5q0 -53 -36 -88t-85 -35 t-85 36t-36 84z" />
<glyph unicode="&#xdd;" horiz-adv-x="1128" d="M23 1276v246h446v-187q0 -100 29 -161l102 -211l100 202q33 66 33 170v187h391v-246q-42 -13 -82 -88l-292 -586v-199q0 -77 13.5 -108.5t63.5 -38.5v-256h-508v256q44 9 62 42t18 101v185l-295 602q-37 79 -81 90zM506 1634l156 264h206l-250 -264h-112z" />
<glyph unicode="&#xde;" horiz-adv-x="1190" d="M102 0v256q34 7 51.5 25.5t22 45.5t4.5 87v704q0 82 -13 114.5t-65 43.5v246h506v-191q-42 -6 -59 -26t-17 -66h158q163 0 264 -41.5t147 -131.5t46 -241q0 -136 -20.5 -226.5t-71.5 -145.5t-139.5 -81t-225.5 -26h-158v-20q0 -65 15.5 -93.5t60.5 -37.5v-195h-506z M532 625h121q99 0 135.5 32.5t36.5 133.5q0 102 -37 138t-133 36h-123v-340z" />
<glyph unicode="&#xdf;" horiz-adv-x="1112" d="M63 0v227q44 21 59 54t15 98v682q0 117 11 189t47 128q48 77 148 117.5t249 40.5q223 0 323.5 -90t100.5 -285q0 -135 -47 -207.5t-162 -103.5q117 -31 167 -105t50 -210v-179q0 -191 -75.5 -273.5t-256.5 -82.5h-133v227h27q68 0 90 34t22 126v174q0 87 -31 125.5 t-108 42.5v195q59 4 89.5 25t42 62t11.5 111q0 96 -29.5 140.5t-99.5 44.5q-72 0 -97 -44.5t-25 -138.5v-1124h-388z" />
<glyph unicode="&#xe0;" horiz-adv-x="1133" d="M72 291q0 115 62.5 190t184.5 129.5t357 128.5v64q0 65 -27 95t-86 30q-114 0 -114 -129v-35h-314v258q66 35 145.5 63t153.5 41t146 13q147 0 237.5 -39.5t131 -121.5t40.5 -216v-373q0 -84 13 -118t61 -44v-227h-375v117q-50 -46 -103 -75.5t-111 -44.5t-114 -15 q-133 0 -210.5 82.5t-77.5 226.5zM354 1505h207l156 -264h-113zM406 315q0 -40 24 -65t66 -25q86 0 180 109v192q-147 -58 -208.5 -102t-61.5 -109z" />
<glyph unicode="&#xe1;" horiz-adv-x="1133" d="M72 291q0 115 62.5 190t184.5 129.5t357 128.5v64q0 65 -27 95t-86 30q-114 0 -114 -129v-35h-314v258q66 35 145.5 63t153.5 41t146 13q147 0 237.5 -39.5t131 -121.5t40.5 -216v-373q0 -84 13 -118t61 -44v-227h-375v117q-50 -46 -103 -75.5t-111 -44.5t-114 -15 q-133 0 -210.5 82.5t-77.5 226.5zM406 315q0 -40 24 -65t66 -25q86 0 180 109v192q-147 -58 -208.5 -102t-61.5 -109zM479 1241l156 264h207l-250 -264h-113z" />
<glyph unicode="&#xe2;" horiz-adv-x="1133" d="M72 291q0 115 62.5 190t184.5 129.5t357 128.5v64q0 65 -27 95t-86 30q-114 0 -114 -129v-35h-314v258q66 35 145.5 63t153.5 41t146 13q147 0 237.5 -39.5t131 -121.5t40.5 -216v-373q0 -84 13 -118t61 -44v-227h-375v117q-50 -46 -103 -75.5t-111 -44.5t-114 -15 q-133 0 -210.5 82.5t-77.5 226.5zM295 1217l166 262h201l165 -262h-118l-148 153l-149 -153h-117zM406 315q0 -40 24 -65t66 -25q86 0 180 109v192q-147 -58 -208.5 -102t-61.5 -109z" />
<glyph unicode="&#xe3;" horiz-adv-x="1133" d="M72 291q0 115 62.5 190t184.5 129.5t357 128.5v64q0 65 -27 95t-86 30q-114 0 -114 -129v-35h-314v258q66 35 145.5 63t153.5 41t146 13q147 0 237.5 -39.5t131 -121.5t40.5 -216v-373q0 -84 13 -118t61 -44v-227h-375v117q-50 -46 -103 -75.5t-111 -44.5t-114 -15 q-133 0 -210.5 82.5t-77.5 226.5zM340 1221q20 96 58 141t102 45q32 0 65 -10l74 -19q28 -4 43 -4q46 0 66 68h86q-21 -98 -60.5 -146.5t-103.5 -48.5q-35 0 -56 6l-69 21q-19 6 -49 6q-52 0 -68 -59h-88zM406 315q0 -40 24 -65t66 -25q86 0 180 109v192 q-147 -58 -208.5 -102t-61.5 -109z" />
<glyph unicode="&#xe4;" horiz-adv-x="1133" d="M72 291q0 115 62.5 190t184.5 129.5t357 128.5v64q0 65 -27 95t-86 30q-114 0 -114 -129v-35h-314v258q66 35 145.5 63t153.5 41t146 13q147 0 237.5 -39.5t131 -121.5t40.5 -216v-373q0 -84 13 -118t61 -44v-227h-375v117q-50 -46 -103 -75.5t-111 -44.5t-114 -15 q-133 0 -210.5 82.5t-77.5 226.5zM293 1354q0 49 36 85t85 36t86 -37t37 -86q0 -50 -35.5 -85.5t-85.5 -35.5q-47 0 -83 36t-36 83zM406 315q0 -40 24 -65t66 -25q86 0 180 109v192q-147 -58 -208.5 -102t-61.5 -109zM623 1350q0 47 35.5 82.5t84.5 35.5q52 0 87.5 -34.5 t35.5 -85.5q0 -53 -36 -88t-85 -35q-48 0 -84 36t-36 85z" />
<glyph unicode="&#xe5;" horiz-adv-x="1133" d="M72 291q0 115 62.5 190t184.5 129.5t357 128.5v64q0 65 -27 95t-86 30q-114 0 -114 -129v-35h-314v258q66 35 145.5 63t153.5 41t146 13q147 0 237.5 -39.5t131 -121.5t40.5 -216v-373q0 -84 13 -118t61 -44v-227h-375v117q-50 -46 -103 -75.5t-111 -44.5t-114 -15 q-133 0 -210.5 82.5t-77.5 226.5zM375 1434q0 57 28 104.5t75.5 75.5t105.5 28t106.5 -28t76.5 -75t28 -105q0 -89 -61 -151t-150 -62t-149 62t-60 151zM406 315q0 -40 24 -65t66 -25q86 0 180 109v192q-147 -58 -208.5 -102t-61.5 -109zM487 1434q0 -41 28 -69t69 -28 t68.5 27.5t27.5 67.5t-28 68t-68 28l-2 2q-41 0 -68 -27t-27 -69z" />
<glyph unicode="&#xe6;" horiz-adv-x="1653" d="M72 291q0 115 62.5 190t184.5 129.5t357 128.5v64q0 65 -27 95t-86 30q-114 0 -114 -129v-35h-314v258q217 113 434 113q164 0 271 -70q123 74 280 74q156 0 255 -42.5t145.5 -131.5t46.5 -226v-245h-582v-97q0 -97 30.5 -141.5t104.5 -44.5q137 0 137 160v6h310v-266 q-94 -62 -209 -95.5t-238 -33.5q-276 0 -387 165q-187 -165 -373 -165q-133 0 -210.5 82.5t-77.5 226.5zM406 315q0 -40 24 -65t66 -25q82 0 180 109v192q-147 -58 -208.5 -102t-61.5 -109zM985 692h272v45q0 174 -137 174q-73 0 -104 -45t-31 -143v-31z" />
<glyph unicode="&#xe7;" horiz-adv-x="1075" d="M100 379v360q0 103 25 177.5t79 124.5t135.5 74t195.5 24q229 0 442 -121v-316h-291v35q0 89 -32.5 131.5t-102.5 42.5q-73 0 -104 -45t-31 -143v-326q0 -97 30.5 -141.5t104.5 -44.5q76 0 105.5 44.5t29.5 141.5v66h291v-361q-87 -56 -197 -88t-229 -32 q-161 0 -259.5 41.5t-145 128t-46.5 227.5zM367 -258q129 -33 202 -33q78 0 78 58q0 29 -21 42t-71 13h-43v168h78v-74h10q186 0 186 -149q0 -160 -208 -160q-87 0 -211 33v102z" />
<glyph unicode="&#xe8;" horiz-adv-x="1081" d="M100 379v360q0 140 46 228t146 130t259 42q235 0 339.5 -96t104.5 -304v-245h-579v-97q0 -97 30.5 -141.5t104.5 -44.5q135 0 135 160v6h309v-266q-198 -129 -444 -129q-161 0 -259.5 41.5t-145 128t-46.5 227.5zM334 1495h207l155 -264h-112zM416 692h270v45 q0 89 -32.5 131.5t-102.5 42.5q-73 0 -104 -45t-31 -143v-31z" />
<glyph unicode="&#xe9;" horiz-adv-x="1081" d="M100 379v360q0 140 46 228t146 130t259 42q235 0 339.5 -96t104.5 -304v-245h-579v-97q0 -97 30.5 -141.5t104.5 -44.5q135 0 135 160v6h309v-266q-198 -129 -444 -129q-161 0 -259.5 41.5t-145 128t-46.5 227.5zM416 692h270v45q0 89 -32.5 131.5t-102.5 42.5 q-73 0 -104 -45t-31 -143v-31zM418 1241l155 264h207l-250 -264h-112z" />
<glyph unicode="&#xea;" horiz-adv-x="1081" d="M100 379v360q0 140 46 228t146 130t259 42q235 0 339.5 -96t104.5 -304v-245h-579v-97q0 -97 30.5 -141.5t104.5 -44.5q135 0 135 160v6h309v-266q-198 -129 -444 -129q-161 0 -259.5 41.5t-145 128t-46.5 227.5zM291 1208l166 262h200l166 -262h-118l-148 154l-149 -154 h-117zM416 692h270v45q0 89 -32.5 131.5t-102.5 42.5q-73 0 -104 -45t-31 -143v-31z" />
<glyph unicode="&#xeb;" horiz-adv-x="1081" d="M100 379v360q0 140 46 228t146 130t259 42q235 0 339.5 -96t104.5 -304v-245h-579v-97q0 -97 30.5 -141.5t104.5 -44.5q135 0 135 160v6h309v-266q-198 -129 -444 -129q-161 0 -259.5 41.5t-145 128t-46.5 227.5zM258 1346q0 50 36 85t85 35t86 -36t37 -87 q0 -49 -35.5 -84.5t-85.5 -35.5q-47 0 -83 36t-36 82zM416 692h270v45q0 89 -32.5 131.5t-102.5 42.5q-73 0 -104 -45t-31 -143v-31zM588 1341q0 49 35 84t86 35t86.5 -35.5t35.5 -85.5q0 -51 -35.5 -86.5t-84.5 -35.5t-85 36t-36 84z" />
<glyph unicode="&#xec;" horiz-adv-x="633" d="M59 1495h207l156 -264h-113zM96 0v227q43 7 56.5 44t13.5 126v355q0 70 -11.5 98t-58.5 45v223h383v-739q0 -78 11.5 -108.5t56.5 -43.5v-227h-451z" />
<glyph unicode="&#xed;" horiz-adv-x="633" d="M96 0v227q43 7 56.5 44t13.5 126v355q0 70 -11.5 98t-58.5 45v223h383v-739q0 -78 11.5 -108.5t56.5 -43.5v-227h-451zM154 1241l155 264h207l-250 -264h-112z" />
<glyph unicode="&#xee;" horiz-adv-x="633" d="M27 1212l166 263h200l166 -263h-119l-147 154l-150 -154h-116zM96 0v227q43 7 56.5 44t13.5 126v355q0 70 -11.5 98t-58.5 45v223h383v-739q0 -78 11.5 -108.5t56.5 -43.5v-227h-451z" />
<glyph unicode="&#xef;" horiz-adv-x="633" d="M4 1339q0 49 36 85t85 36q51 0 87 -36t36 -87q0 -49 -35.5 -84.5t-85.5 -35.5q-47 0 -83 36t-36 82zM96 0v227q43 7 56.5 44t13.5 126v355q0 70 -11.5 98t-58.5 45v223h383v-739q0 -78 11.5 -108.5t56.5 -43.5v-227h-451zM334 1335q0 49 35 84t86 35q50 0 86.5 -35.5 t36.5 -85.5q0 -52 -36.5 -87.5t-84.5 -35.5q-49 0 -85 36t-36 85z" />
<glyph unicode="&#xf0;" horiz-adv-x="1100" d="M100 360v340q0 136 47 219t149.5 121.5t266.5 38.5h19q-61 87 -129 170l-297 -121l-54 119l267 109q-120 136 -179 196h283q68 -59 113 -102l252 100l53 -123l-203 -86q161 -175 236 -321.5t75 -319.5v-340q0 -134 -46 -216.5t-145.5 -122t-256.5 -39.5q-158 0 -257.5 39 t-146.5 123t-47 216zM416 377q0 -93 30.5 -135.5t104.5 -42.5q76 0 105.5 42.5t29.5 135.5v309q0 93 -30.5 135.5t-104.5 42.5q-73 0 -104 -42.5t-31 -135.5v-309z" />
<glyph unicode="&#xf1;" horiz-adv-x="1204" d="M92 0v227q43 7 56.5 44t13.5 126v355q0 70 -11.5 98t-58.5 45v223h381v-69q129 75 252 75q188 0 262 -93t74 -300v-348q0 -86 14 -119.5t60 -36.5v-227h-355q-21 58 -26.5 138t-5.5 200v350q0 108 -31.5 157.5t-110.5 49.5q-66 0 -133 -53v-463q0 -76 12.5 -107.5 t57.5 -44.5v-227h-451zM424 1202q20 96 58 141.5t102 45.5q29 0 65 -11l74 -18q28 -4 43 -4q47 0 65 67h87q-21 -99 -60.5 -146.5t-103.5 -47.5q-35 0 -56 6l-69 20q-19 7 -49 7q-26 0 -42.5 -13.5t-25.5 -46.5h-88z" />
<glyph unicode="&#xf2;" horiz-adv-x="1100" d="M100 379v360q0 140 46 228t146 130t259 42q238 0 343 -95t105 -305v-360q0 -141 -46 -227.5t-144 -128t-258 -41.5q-161 0 -259.5 41.5t-145 128t-46.5 227.5zM356 1495h207l156 -264h-113zM422 397q0 -98 29.5 -142t99.5 -44q69 0 98 44t29 142v326q0 99 -29 143.5 t-98 44.5t-99 -45.5t-30 -142.5v-326z" />
<glyph unicode="&#xf3;" horiz-adv-x="1100" d="M100 379v360q0 140 46 228t146 130t259 42q238 0 343 -95t105 -305v-360q0 -141 -46 -227.5t-144 -128t-258 -41.5q-161 0 -259.5 41.5t-145 128t-46.5 227.5zM420 1231l155 264h207l-250 -264h-112zM422 397q0 -98 29.5 -142t99.5 -44q69 0 98 44t29 142v326 q0 99 -29 143.5t-98 44.5t-99 -45.5t-30 -142.5v-326z" />
<glyph unicode="&#xf4;" horiz-adv-x="1100" d="M100 379v360q0 140 46 228t146 130t259 42q238 0 343 -95t105 -305v-360q0 -141 -46 -227.5t-144 -128t-258 -41.5q-161 0 -259.5 41.5t-145 128t-46.5 227.5zM276 1208l166 262h201l166 -262h-119l-147 154l-150 -154h-117zM422 397q0 -98 29.5 -142t99.5 -44 q69 0 98 44t29 142v326q0 99 -29 143.5t-98 44.5t-99 -45.5t-30 -142.5v-326z" />
<glyph unicode="&#xf5;" horiz-adv-x="1100" d="M100 379v360q0 140 46 228t146 130t259 42q238 0 343 -95t105 -305v-360q0 -141 -46 -227.5t-144 -128t-258 -41.5q-161 0 -259.5 41.5t-145 128t-46.5 227.5zM301 1221q20 96 58 141t102 45q32 0 65 -10l74 -19q28 -4 43 -4q46 0 66 68h86q-21 -98 -60.5 -146.5 t-103.5 -48.5q-35 0 -56 6l-69 21q-19 6 -49 6q-52 0 -68 -59h-88zM422 397q0 -98 29.5 -142t99.5 -44q69 0 98 44t29 142v326q0 99 -29 143.5t-98 44.5t-99 -45.5t-30 -142.5v-326z" />
<glyph unicode="&#xf6;" horiz-adv-x="1100" d="M100 379v360q0 140 46 228t146 130t259 42q238 0 343 -95t105 -305v-360q0 -141 -46 -227.5t-144 -128t-258 -41.5q-161 0 -259.5 41.5t-145 128t-46.5 227.5zM244 1366q0 49 36 85t85 36q50 0 86 -36t36 -87q0 -50 -34.5 -85.5t-85.5 -35.5q-47 0 -83 36t-36 83z M422 397q0 -98 29.5 -142t99.5 -44q69 0 98 44t29 142v326q0 99 -29 143.5t-98 44.5t-99 -45.5t-30 -142.5v-326zM573 1362q0 48 34.5 83.5t86.5 35.5t87.5 -35.5t35.5 -85.5q0 -53 -36 -88t-85 -35t-85 36t-36 85z" />
<glyph unicode="&#xf7;" horiz-adv-x="1706" d="M254 512v199h1198v-199h-1198zM702 217q0 63 44.5 107.5t107.5 44.5q61 0 106.5 -44.5t45.5 -107.5q0 -59 -45 -104t-107 -45q-64 0 -108 43t-44 106zM702 1004q0 63 45 107t107 44q61 0 106.5 -44.5t45.5 -106.5q0 -63 -44.5 -107.5t-107.5 -44.5q-43 0 -77 20.5 t-54.5 54.5t-20.5 77z" />
<glyph unicode="&#xf8;" horiz-adv-x="1100" d="M100 379v360q0 140 46 228t146 130t259 42q89 0 162 -17l47 92l217 -100l-53 -102q75 -69 75 -273v-360q0 -141 -46 -227.5t-144 -128t-258 -41.5q-95 0 -168 16l-47 -98l-211 108l49 101q-74 74 -74 270zM416 397q0 -97 30.5 -141.5t104.5 -44.5q76 0 105.5 44.5 t29.5 141.5v326q0 98 -30.5 143t-104.5 45q-73 0 -104 -45t-31 -143v-326z" />
<glyph unicode="&#xf9;" horiz-adv-x="1204" d="M90 891v227h332q14 -38 21 -86.5t9.5 -103t2.5 -146.5v-352q0 -105 31 -156t106 -51q65 0 137 56v460q0 79 -12 110t-58 42v227h381v-749q0 -51 4 -75.5t18 -41.5t48 -29v-223h-381v72q-132 -78 -252 -78q-128 0 -201.5 42.5t-104 127.5t-30.5 225v340q0 80 -10.5 117 t-40.5 45zM305 1485h207l156 -264h-113z" />
<glyph unicode="&#xfa;" horiz-adv-x="1204" d="M90 891v227h332q14 -38 21 -86.5t9.5 -103t2.5 -146.5v-352q0 -105 31 -156t106 -51q65 0 137 56v460q0 79 -12 110t-58 42v227h381v-749q0 -51 4 -75.5t18 -41.5t48 -29v-223h-381v72q-132 -78 -252 -78q-128 0 -201.5 42.5t-104 127.5t-30.5 225v340q0 80 -10.5 117 t-40.5 45zM481 1231l156 264h207l-250 -264h-113z" />
<glyph unicode="&#xfb;" horiz-adv-x="1204" d="M90 891v227h332q14 -38 21 -86.5t9.5 -103t2.5 -146.5v-352q0 -105 31 -156t106 -51q65 0 137 56v460q0 79 -12 110t-58 42v227h381v-749q0 -51 4 -75.5t18 -41.5t48 -29v-223h-381v72q-132 -78 -252 -78q-128 0 -201.5 42.5t-104 127.5t-30.5 225v340q0 80 -10.5 117 t-40.5 45zM301 1202l166 262h201l166 -262h-119l-148 154l-149 -154h-117z" />
<glyph unicode="&#xfc;" horiz-adv-x="1204" d="M90 891v227h332q14 -38 21 -86.5t9.5 -103t2.5 -146.5v-352q0 -105 31 -156t106 -51q65 0 137 56v460q0 79 -12 110t-58 42v227h381v-749q0 -51 4 -75.5t18 -41.5t48 -29v-223h-381v72q-132 -78 -252 -78q-128 0 -201.5 42.5t-104 127.5t-30.5 225v340q0 80 -10.5 117 t-40.5 45zM289 1329q0 49 36 85t85 36q50 0 86 -36t36 -87q0 -50 -35.5 -85.5t-84.5 -35.5q-48 0 -83.5 36.5t-35.5 82.5zM618 1325q0 50 34.5 84.5t86.5 34.5t87.5 -35.5t35.5 -85.5q0 -53 -36 -88t-85 -35q-48 0 -84 36t-36 85z" />
<glyph unicode="&#xfd;" horiz-adv-x="1049" d="M23 895v223h438v-223q-41 -11 -41 -57q0 -18 6 -45l119 -496l106 496q6 21 6 43q0 40 -41 59v223h412v-223q-30 -11 -44 -32.5t-28 -67.5l-206 -750q-32 -118 -65.5 -203t-79 -142t-113.5 -86.5t-164 -29.5q-52 0 -105 13v243h8q57 0 89 22.5t53 80.5l-275 843 q-30 98 -75 109zM467 1210l156 265h206l-249 -265h-113z" />
<glyph unicode="&#xfe;" horiz-adv-x="1176" d="M84 -170q43 6 55.5 42.5t12.5 125.5v1157q0 72 -11 99t-57 44v224h381v-473q147 84 276 84q93 0 155.5 -25t101.5 -74.5t57 -124.5t18 -178v-305q0 -150 -28 -245t-100.5 -143t-203.5 -48q-130 0 -276 76v-84q0 -78 11.5 -109.5t55.5 -42.5v-227h-448v227zM465 276 q88 -45 149 -45q53 0 84 25.5t42.5 75t11.5 129.5v227q0 71 -13.5 117t-45.5 68t-89 22q-72 0 -139 -53v-566z" />
<glyph unicode="&#xff;" horiz-adv-x="1049" d="M23 895v223h438v-223q-41 -11 -41 -57q0 -18 6 -45l119 -496l106 496q6 21 6 43q0 40 -41 59v223h412v-223q-30 -11 -44 -32.5t-28 -67.5l-206 -750q-32 -118 -65.5 -203t-79 -142t-113.5 -86.5t-164 -29.5q-52 0 -105 13v243h8q57 0 89 22.5t53 80.5l-275 843 q-30 98 -75 109zM264 1333q0 49 36 85t85 36q51 0 87 -36t36 -87q0 -50 -36.5 -85.5t-84.5 -35.5q-47 0 -83 36t-36 83zM594 1329q0 49 35 84t86 35q50 0 86.5 -35.5t36.5 -85.5q0 -53 -36 -88t-85 -35t-85 36t-36 85z" />
<glyph unicode="&#x152;" horiz-adv-x="1853" d="M109 512v498q0 135 10.5 216.5t48.5 145.5q57 96 167.5 138t285.5 42q110 0 239 -30h905v-465h-327v14q0 92 -41 126t-144 34h-129v-318h418v-256h-418v-366h127q75 0 115.5 14t56 48.5t15.5 101.5v55h327v-510h-903q-133 -31 -241 -31q-158 0 -264 35.5t-167 112.5 q-36 46 -53.5 104.5t-22.5 120.5t-5 170zM459 500q0 -117 37 -170.5t125 -53.5t123.5 54t35.5 170v522q0 115 -35 169t-124 54t-125.5 -53.5t-36.5 -169.5v-522z" />
<glyph unicode="&#x153;" horiz-adv-x="1667" d="M100 379v360q0 140 46 228t146 130t259 42q167 0 291 -80q130 80 295 80q235 0 339.5 -96t104.5 -304v-245h-580v-97q0 -97 31.5 -141.5t104.5 -44.5q135 0 135 160v6h309v-266q-94 -62 -208.5 -95.5t-235.5 -33.5q-188 0 -293 81q-138 -81 -293 -81q-161 0 -259.5 41.5 t-145 128t-46.5 227.5zM416 397q0 -97 30.5 -141.5t104.5 -44.5q76 0 105.5 44.5t29.5 141.5v326q0 98 -30.5 143t-104.5 45q-73 0 -104 -45t-31 -143v-326zM1001 692h271v45q0 89 -32.5 131.5t-102.5 42.5q-72 0 -104 -45t-32 -143v-31z" />
<glyph unicode="&#x178;" horiz-adv-x="1128" d="M23 1276v246h446v-187q0 -100 29 -161l102 -211l100 202q33 66 33 170v187h391v-246q-42 -13 -82 -88l-292 -586v-199q0 -77 13.5 -108.5t63.5 -38.5v-256h-508v256q44 9 62 42t18 101v185l-295 602q-37 79 -81 90zM315 1739q0 49 36 85t85 36q51 0 87 -37t36 -86 q0 -50 -35.5 -85.5t-85.5 -35.5q-46 0 -82.5 35.5t-36.5 83.5zM645 1735q0 47 35.5 82.5t85.5 35.5q52 0 87.5 -34.5t35.5 -85.5q0 -53 -36 -88t-85 -35t-85 36t-36 85z" />
<glyph unicode="&#x2c6;" d="M197 1249l196 371h238l196 -371h-141l-174 217l-176 -217h-139z" />
<glyph unicode="&#x2dc;" d="M195 1296q24 121 73.5 178.5t130.5 57.5q38 0 86 -14l93 -25q36 -8 55 -8q33 0 53.5 22t32.5 64h110q-27 -125 -77.5 -184.5t-130.5 -59.5q-41 0 -74 10l-88 27q-31 10 -66 10q-64 0 -88 -78h-110z" />
<glyph unicode="&#x2000;" horiz-adv-x="1008" />
<glyph unicode="&#x2001;" horiz-adv-x="2017" />
<glyph unicode="&#x2002;" horiz-adv-x="1008" />
<glyph unicode="&#x2003;" horiz-adv-x="2017" />
<glyph unicode="&#x2004;" horiz-adv-x="672" />
<glyph unicode="&#x2005;" horiz-adv-x="504" />
<glyph unicode="&#x2006;" horiz-adv-x="336" />
<glyph unicode="&#x2007;" horiz-adv-x="336" />
<glyph unicode="&#x2008;" horiz-adv-x="252" />
<glyph unicode="&#x2009;" horiz-adv-x="403" />
<glyph unicode="&#x200a;" horiz-adv-x="112" />
<glyph unicode="&#x2010;" horiz-adv-x="782" d="M117 453v245h549v-245h-549z" />
<glyph unicode="&#x2011;" horiz-adv-x="782" d="M117 453v245h549v-245h-549z" />
<glyph unicode="&#x2012;" horiz-adv-x="782" d="M117 453v245h549v-245h-549z" />
<glyph unicode="&#x2013;" d="M0 475v203h1024v-203h-1024z" />
<glyph unicode="&#x2014;" horiz-adv-x="2048" d="M0 475v203h2048v-203h-2048z" />
<glyph unicode="&#x2018;" horiz-adv-x="555" d="M133 1253q0 78 48 156.5t141 142.5l55 -63q-71 -54 -90 -127q45 0 77 -17t49 -48t17 -70q0 -38 -19 -70.5t-53 -51t-73 -18.5q-67 0 -109.5 45.5t-42.5 120.5z" />
<glyph unicode="&#x2019;" horiz-adv-x="555" d="M133 1413q0 60 42.5 99.5t103.5 39.5q67 0 109 -45t42 -121q0 -80 -48.5 -158.5t-139.5 -140.5l-56 64q71 53 90 127q-66 0 -104.5 36.5t-38.5 98.5z" />
<glyph unicode="&#x201a;" horiz-adv-x="555" d="M164 141q0 60 42 100t103 40q67 0 109.5 -45t42.5 -121q0 -80 -49.5 -159t-139.5 -140l-55 63q71 54 90 127q-66 0 -104.5 36.5t-38.5 98.5z" />
<glyph unicode="&#x201c;" horiz-adv-x="934" d="M133 1253q0 78 48 156.5t141 142.5l55 -63q-74 -56 -92 -127q66 0 105.5 -37t39.5 -98q0 -38 -19 -70.5t-53 -51t-73 -18.5q-67 0 -109.5 45.5t-42.5 120.5zM512 1253q0 78 48.5 157t139.5 142l56 -63q-73 -58 -90 -127q45 0 77 -17t49 -48t17 -70q0 -38 -19 -70 t-52.5 -51t-73.5 -19q-67 0 -109.5 45.5t-42.5 120.5z" />
<glyph unicode="&#x201d;" horiz-adv-x="934" d="M131 1413q0 60 42 99.5t103 39.5q68 0 110 -45t42 -121q0 -80 -49 -158.5t-139 -140.5l-54 64q71 53 90 127q-66 0 -105.5 37t-39.5 98zM512 1413q0 60 42 99.5t103 39.5q67 0 109.5 -45t42.5 -121q0 -80 -49 -158.5t-139 -140.5l-56 64q71 54 90 127q-66 0 -104.5 36.5 t-38.5 98.5z" />
<glyph unicode="&#x201e;" horiz-adv-x="934" d="M164 141q0 60 42 100t103 40q67 0 109.5 -45t42.5 -121q0 -80 -49.5 -159t-139.5 -140l-55 63q71 54 90 127q-66 0 -104.5 36.5t-38.5 98.5zM543 141q0 60 42 100t103 40q67 0 109.5 -45t42.5 -121q0 -80 -49.5 -159t-139.5 -140l-55 63q71 54 90 127q-66 0 -104.5 36.5 t-38.5 98.5z" />
<glyph unicode="&#x2022;" horiz-adv-x="1208" d="M307 762q0 79 39.5 147.5t108 108t149.5 39.5q80 0 147.5 -39.5t107.5 -108t40 -147.5t-40 -147.5t-108.5 -109t-148.5 -40.5q-79 0 -147.5 39.5t-108 108t-39.5 149.5z" />
<glyph unicode="&#x2026;" horiz-adv-x="2048" d="M178 143q0 42 22.5 80t60.5 61t81 23q69 0 115.5 -48.5t46.5 -115.5q0 -68 -47.5 -114.5t-114.5 -46.5q-64 0 -114 49t-50 112zM860 143q0 42 22.5 80t60.5 61t81 23q69 0 115.5 -48.5t46.5 -115.5q0 -68 -47.5 -114.5t-114.5 -46.5q-64 0 -114 49t-50 112zM1544 143 q0 42 22.5 80t60.5 61t81 23q69 0 115.5 -48.5t46.5 -115.5q0 -68 -47.5 -114.5t-114.5 -46.5q-64 0 -114 49t-50 112z" />
<glyph unicode="&#x202f;" horiz-adv-x="403" />
<glyph unicode="&#x2039;" horiz-adv-x="578" d="M115 578l149 374h217l-143 -374l143 -375h-217z" />
<glyph unicode="&#x203a;" horiz-adv-x="578" d="M98 203l144 375l-144 374h215l152 -374l-152 -375h-215z" />
<glyph unicode="&#x205f;" horiz-adv-x="504" />
<glyph unicode="&#x2122;" horiz-adv-x="1706" d="M207 1350v112h485v-112h-168v-435h-149v435h-168zM803 915v547h196l127 -332l123 332h197v-547h-135v410l-154 -410h-61l-158 410v-410h-135z" />
<glyph unicode="&#x25fc;" horiz-adv-x="1120" d="M0 0v1120h1120v-1120h-1120z" />
<glyph unicode="&#xfb01;" horiz-adv-x="1305" d="M115 0v227q43 14 55 42.5t12 92.5v510h-67v246h67v96q0 158 82.5 239t239.5 81q66 0 143 -18v-224h-33q-118 0 -118 -129v-45h129v-246h-129v-507q0 -66 13 -96t56 -42v-227h-450zM768 0v227q42 7 56 45t14 125v355q0 70 -11.5 98t-58.5 45v223h381v-739 q0 -76 12.5 -107.5t57.5 -44.5v-227h-451zM799 1352q0 46 24 87.5t65 66t89 24.5q73 0 124.5 -51.5t51.5 -126.5q0 -48 -24 -88.5t-64.5 -64t-87.5 -23.5q-70 0 -124 53t-54 123z" />
</font>
</defs>
</svg>
